<svg width="81" height="39" viewBox="0 0 81 39" fill="none" xmlns="http://www.w3.org/2000/svg">
<path d="M28.7586 9.32056L37.1789 19.2344L28.7586 29.1482C23.3163 34.5154 14.5537 34.4922 9.14012 29.0786C3.70329 23.6418 3.70329 14.827 9.14012 9.39012C14.5537 3.97658 23.3163 3.95339 28.7586 9.32056ZM40.5 15.3243L32.4811 5.88317L32.4084 5.81039C24.9945 -1.60346 12.9743 -1.60346 5.56039 5.81039C-1.85346 13.2243 -1.85346 25.2445 5.56039 32.6584C12.9743 40.0722 24.9945 40.0722 32.4084 32.6584L32.4811 32.5856L40.5 23.1445L48.5189 32.5856L48.5916 32.6584C56.0055 40.0722 68.0257 40.0722 75.4396 32.6584C82.8535 25.2445 82.8535 13.2243 75.4396 5.81039C68.0257 -1.60346 56.0055 -1.60346 48.5916 5.81039L48.5189 5.88317L40.5 15.3243ZM43.8211 19.2344L52.2414 9.32056C57.6837 3.95339 66.4463 3.97658 71.8599 9.39012C77.2967 14.827 77.2967 23.6418 71.8599 29.0786C66.4463 34.4922 57.6837 34.5154 52.2414 29.1482L43.8211 19.2344Z" fill="#2D2D2D"/>
</svg>
