<svg width="202" height="100" viewBox="0 0 202 100" fill="none" xmlns="http://www.w3.org/2000/svg">
<path d="M0.86 56.64L1.66 51.08L1.76 51.02C2.10667 51.14 2.34 51.2133 2.46 51.24C2.58 51.28 2.70667 51.32 2.84 51.36C2.97333 51.3867 3.11333 51.42 3.26 51.46C3.64667 50.2067 3.94667 48.9267 4.16 47.62C4.38667 46.3 4.5 45.08 4.5 43.96C4.5 43.8 4.5 43.6333 4.5 43.46C4.5 43.2867 4.5 43.1133 4.5 42.94V42.18C4.19333 42.2067 3.68667 42.3067 2.98 42.48C2.92667 42.4933 2.87333 42.5067 2.82 42.52C2.78 42.52 2.74 42.5267 2.7 42.54L2.62 42.42L3.08 40H14.54V40.2C14.5267 40.52 14.5133 40.82 14.5 41.1C14.4867 41.38 14.4733 41.6467 14.46 41.9C14.4467 42.1533 14.44 42.4 14.44 42.64C14.44 42.88 14.44 43.1333 14.44 43.4V49.46C14.44 49.82 14.44 50.18 14.44 50.54C14.44 50.9 14.44 51.2467 14.44 51.58H14.56L15.08 51.5L16.14 51.38L16.5 56.76L13.96 57.06L13.7 55.78C13.6067 55.34 13.4667 54.9867 13.28 54.72C13.0933 54.4533 12.8533 54.2667 12.56 54.16C12.28 54.0533 11.9333 54 11.52 54H6.02C5.54 54 5.15333 54.04 4.86 54.12C4.58 54.2133 4.34667 54.3667 4.16 54.58C3.97333 54.7933 3.81333 55.0933 3.68 55.48L3.12 57.06L0.86 56.64ZM11.4 51.5V42.56H7.5L7.48 43C7.32 44.5867 7.10667 46.0667 6.84 47.44C6.58667 48.8133 6.26 50.1667 5.86 51.5C6.03333 51.5 6.20667 51.5 6.38 51.5C6.55333 51.5 6.72667 51.5 6.9 51.5H11.4ZM20.8789 54.22C19.8122 54.22 18.9856 53.9667 18.3989 53.46C17.8256 52.94 17.5389 52.26 17.5389 51.42C17.5389 50.6733 17.7522 50.0733 18.1789 49.62C18.6056 49.1667 19.1589 48.84 19.8389 48.64C20.5322 48.4267 21.3789 48.28 22.3789 48.2C22.8989 48.16 23.3189 48.1067 23.6389 48.04C23.9589 47.9733 24.2122 47.8733 24.3989 47.74C24.5856 47.6067 24.6789 47.4267 24.6789 47.2C24.6789 46.7867 24.5189 46.4667 24.1989 46.24C23.8789 46 23.4456 45.88 22.8989 45.88C22.4856 45.88 22.1056 45.96 21.7589 46.12C21.4122 46.2667 21.1056 46.4867 20.8389 46.78C20.5856 47.06 20.3856 47.3867 20.2389 47.76L20.1989 47.84L18.2989 47.5L19.4189 43.18H21.7189L21.8189 43.28L21.4189 44.22C21.6056 44.1267 21.7722 44.06 21.9189 44.02C22.1189 43.9533 22.3322 43.9 22.5589 43.86C22.7989 43.82 23.0656 43.8 23.3589 43.8C24.4656 43.8 25.3456 44.1533 25.9989 44.86C26.6522 45.5667 26.9789 46.5267 26.9789 47.74V51.98C27.1522 51.98 27.6189 51.8933 28.3789 51.72C28.4322 51.7067 28.4789 51.7 28.5189 51.7C28.5589 51.6867 28.5989 51.6733 28.6389 51.66L28.7189 51.78L28.3189 54H24.6389V53.8C24.6522 53.6933 24.6589 53.58 24.6589 53.46C24.6722 53.3267 24.6789 53.1933 24.6789 53.06C24.6789 52.98 24.6789 52.9067 24.6789 52.84C24.6922 52.76 24.6989 52.6867 24.6989 52.62C24.2989 53.1133 23.7589 53.5067 23.0789 53.8C22.3989 54.08 21.6656 54.22 20.8789 54.22ZM21.5989 52.12C22.1322 52.12 22.6322 52 23.0989 51.76C23.5789 51.5067 23.9589 51.18 24.2389 50.78C24.5189 50.3667 24.6589 49.9267 24.6589 49.46V49.22C24.4322 49.3667 24.1256 49.4933 23.7389 49.6C23.3656 49.6933 22.9789 49.76 22.5789 49.8C21.8056 49.8533 21.2122 49.9733 20.7989 50.16C20.3856 50.3467 20.1789 50.66 20.1789 51.1C20.1789 51.4333 20.3056 51.6867 20.5589 51.86C20.8122 52.0333 21.1589 52.12 21.5989 52.12ZM29.172 50.58L30.812 50.14L30.852 50.3C30.9187 50.5667 30.992 50.82 31.072 51.06C31.152 51.2867 31.232 51.46 31.312 51.58C31.4054 51.7 31.512 51.76 31.632 51.76C31.8054 51.76 31.972 51.5867 32.132 51.24C32.292 50.8933 32.4254 50.3467 32.532 49.6C32.652 48.84 32.712 47.9 32.712 46.78C32.712 46.6867 32.712 46.6 32.712 46.52C32.712 46.44 32.712 46.3533 32.712 46.26V46.04C32.3254 46.08 31.792 46.18 31.112 46.34L31.052 46.22L31.452 44H38.212C38.572 44 38.9587 43.9867 39.372 43.96C39.7854 43.9333 40.112 43.9 40.352 43.86L40.392 43.98C40.3254 44.74 40.292 45.88 40.292 47.4V51.98C40.412 51.98 40.612 51.9533 40.892 51.9C41.172 51.8467 41.5254 51.7667 41.952 51.66L42.032 51.78L41.632 54H37.632V53.8C37.6854 52.4533 37.712 51.3867 37.712 50.6V46.2H35.172C35.1587 46.3067 35.1454 46.4133 35.132 46.52C35.1187 46.6133 35.1054 46.7133 35.092 46.82C34.932 48.26 34.7654 49.46 34.592 50.42C34.4187 51.38 34.1654 52.2067 33.832 52.9C33.4987 53.5933 33.0587 53.9867 32.512 54.08C32.472 54.08 32.432 54.08 32.392 54.08C32.352 54.0933 32.312 54.1 32.272 54.1C32.272 54.1 32.2654 54.1 32.252 54.1C32.252 54.1 32.2454 54.1 32.232 54.1L32.532 54.92L32.432 55.06H29.972L29.172 50.58ZM44.3077 53.8C44.3743 52.7333 44.4077 51.6667 44.4077 50.6V46.02C44.181 46.02 43.7143 46.1067 43.0077 46.28L42.7277 46.34L42.6677 46.22L43.0677 44H44.8877C45.2343 44 45.621 43.9867 46.0477 43.96C46.4877 43.9333 46.821 43.9 47.0477 43.86L47.0877 43.98C47.021 44.94 46.9877 46.08 46.9877 47.4V51.98C47.1343 51.98 47.5743 51.9 48.3077 51.74L48.6477 51.66L48.7077 51.78L48.3077 54H44.3077V53.8ZM47.2277 39.1L45.4277 42.86H45.2277L43.4277 39.1H47.2277Z" fill="#6F6F6F"/>
<path d="M56.9998 49.0787C79.7588 50.9608 105.327 50.0899 124.035 34.7686C126.953 32.3795 133.072 25.6186 128.986 21.7545C125.401 18.3634 116.474 18.0101 112.649 20.8209C102.693 28.1368 92.2807 40.5831 105.086 50.9646C119.027 62.2663 141.86 67.0356 159.337 69.3218C167.814 70.4307 178.11 71.0908 186.595 69.6963C192.228 68.7706 187.454 67.8988 184.104 66.5333C179.339 64.5911 168.338 60.1064 178.886 64.4062C183.172 66.1534 188.135 67.3824 192.432 67.8405C197.027 68.3304 188.806 70.6748 187.82 71.3291C184.712 73.3919 180.62 77.108 179.183 80.6334" stroke="#6F6F6F" stroke-width="3" stroke-linecap="round"/>
</svg>
