<svg width="78" height="78" viewBox="0 0 78 78" fill="none" xmlns="http://www.w3.org/2000/svg">
<path fill-rule="evenodd" clip-rule="evenodd" d="M0 0.375H4.87167V72.425H77.9467V77.2283H0V0.375ZM48.7167 17.1867C48.7167 16.5497 48.9733 15.9388 49.4301 15.4884C49.8869 15.038 50.5065 14.785 51.1525 14.785H70.6392C71.2852 14.785 71.9047 15.038 72.3616 15.4884C72.8184 15.9388 73.075 16.5497 73.075 17.1867V36.4C73.075 37.0369 72.8184 37.6478 72.3616 38.0982C71.9047 38.5486 71.2852 38.8016 70.6392 38.8016C69.9931 38.8016 69.3736 38.5486 68.9168 38.0982C68.46 37.6478 68.2033 37.0369 68.2033 36.4V23.9113L50.602 45.1276C50.3865 45.3869 50.1184 45.5989 49.8148 45.7499C49.5113 45.9009 49.179 45.9875 48.8394 46.0042C48.4999 46.021 48.1605 45.9674 47.8432 45.8471C47.5258 45.7267 47.2376 45.5422 46.997 45.3054L34.394 32.8791L16.5832 57.0255C16.1935 57.514 15.627 57.8345 15.0027 57.9198C14.3784 58.0051 13.7448 57.8484 13.2352 57.4827C12.7256 57.1171 12.3795 56.5709 12.2698 55.9589C12.1601 55.347 12.2952 54.7169 12.6468 54.2011L32.1335 27.7828C32.3403 27.5019 32.6065 27.2685 32.9136 27.0987C33.2207 26.929 33.5615 26.8269 33.9125 26.7995C34.2635 26.7721 34.6163 26.8201 34.9467 26.9401C35.2771 27.0601 35.5771 27.2493 35.8262 27.4946L48.5364 40.0313L65.4996 19.5883H51.1525C50.5065 19.5883 49.8869 19.3353 49.4301 18.8849C48.9733 18.4345 48.7167 17.8236 48.7167 17.1867Z" fill="#2D2D2D"/>
</svg>
