<svg width="93" height="70" viewBox="0 0 93 70" fill="none" xmlns="http://www.w3.org/2000/svg">
<path fill-rule="evenodd" clip-rule="evenodd" d="M5.8125 10.4776V62.7814C11.1484 60.9366 18.0594 59.1339 24.9182 58.5119C31.2771 57.9269 38.1591 58.3064 43.5938 61.1052V9.73443C39.7924 6.10274 33.2359 5.06436 25.5053 5.77067C18.3326 6.42427 10.9566 8.52738 5.8125 10.4776ZM49.4062 9.73443V61.1052C54.8409 58.3116 61.7288 57.9269 68.0818 58.5067C74.9406 59.1392 81.8574 60.9366 87.1875 62.7814V10.4776C82.0434 8.52738 74.6674 6.42427 67.4948 5.77067C59.7641 5.06436 53.2076 6.10274 49.4062 9.73443ZM46.5 4.96948C40.7747 0.504975 32.4744 -0.159167 24.9182 0.526059C16.1181 1.33252 7.23656 4.06815 1.70306 6.35047C1.19533 6.55988 0.764782 6.89735 0.462797 7.32261C0.160813 7.74787 0.000154446 8.24296 0 8.74876L0 66.7294C0.000134629 67.1703 0.122278 67.6042 0.355243 67.9913C0.588208 68.3783 0.924546 68.7062 1.33345 68.9448C1.74235 69.1835 2.21075 69.3253 2.69574 69.3572C3.18073 69.3891 3.6668 69.3102 4.10944 69.1277C9.23606 67.0193 17.4956 64.4839 25.4994 63.7513C33.6893 63.0028 40.5538 64.2098 44.2331 68.3739C44.5054 68.6817 44.8505 68.9301 45.2429 69.1008C45.6352 69.2715 46.0648 69.3602 46.5 69.3602C46.9352 69.3602 47.3648 69.2715 47.7571 69.1008C48.1495 68.9301 48.4946 68.6817 48.7669 68.3739C52.4462 64.2098 59.3108 63.0028 67.4948 63.7513C75.5044 64.4839 83.7698 67.0193 88.8906 69.1277C89.3332 69.3102 89.8193 69.3891 90.3043 69.3572C90.7892 69.3253 91.2576 69.1835 91.6665 68.9448C92.0755 68.7062 92.4118 68.3783 92.6448 67.9913C92.8777 67.6042 92.9999 67.1703 93 66.7294V8.74876C92.9998 8.24296 92.8392 7.74787 92.5372 7.32261C92.2352 6.89735 91.8047 6.55988 91.2969 6.35047C85.7634 4.06815 76.8819 1.33252 68.0818 0.526059C60.5256 -0.164438 52.2253 0.504975 46.5 4.96948Z" fill="#2D2D2D"/>
</svg>
