<svg width="68" height="58" viewBox="0 0 68 58" fill="none" xmlns="http://www.w3.org/2000/svg">
<path fill-rule="evenodd" clip-rule="evenodd" d="M11.3815 42.0258C11.8226 42.4195 12.1607 42.895 12.3715 43.4182C12.5823 43.9414 12.6608 44.4995 12.6012 45.0527C12.3026 47.6132 11.7363 50.1434 10.9097 52.6105C16.8385 51.3899 20.4595 49.9766 22.1043 49.236C23.0371 48.8158 24.1115 48.7163 25.1217 48.9563C28.0178 49.6428 31.0028 49.9884 34 49.9842C50.983 49.9842 63.75 39.3768 63.75 27.3107C63.75 15.2485 50.983 4.63731 34 4.63731C17.017 4.63731 4.25 15.2485 4.25 27.3107C4.25 32.8582 6.87225 38.0051 11.3815 42.0258ZM9.28625 56.7824C8.27929 56.9599 7.26907 57.1224 6.256 57.2699C5.406 57.3908 4.76 56.6048 5.09575 55.902C5.47312 55.1106 5.819 54.3078 6.13275 53.4948L6.1455 53.457C7.1995 50.7362 8.058 47.6073 8.3725 44.6937C3.15775 40.0457 0 33.9616 0 27.3107C0 12.7015 15.2235 0.858398 34 0.858398C52.7765 0.858398 68 12.7015 68 27.3107C68 41.92 52.7765 53.7631 34 53.7631C30.6325 53.7671 27.279 53.3784 24.0252 52.6067C21.8152 53.6006 17.0595 55.4107 9.28625 56.7824V56.7824Z" fill="#2D2D2D"/>
<path d="M20.8 27.1247C20.8 28.1567 20.3364 29.1465 19.5113 29.8763C18.6861 30.606 17.567 31.016 16.4 31.016C15.233 31.016 14.1139 30.606 13.2887 29.8763C12.4636 29.1465 12 28.1567 12 27.1247C12 26.0927 12.4636 25.1029 13.2887 24.3731C14.1139 23.6434 15.233 23.2334 16.4 23.2334C17.567 23.2334 18.6861 23.6434 19.5113 24.3731C20.3364 25.1029 20.8 26.0927 20.8 27.1247V27.1247ZM38.4 27.1247C38.4 28.1567 37.9364 29.1465 37.1113 29.8763C36.2861 30.606 35.167 31.016 34 31.016C32.833 31.016 31.7139 30.606 30.8887 29.8763C30.0636 29.1465 29.6 28.1567 29.6 27.1247C29.6 26.0927 30.0636 25.1029 30.8887 24.3731C31.7139 23.6434 32.833 23.2334 34 23.2334C35.167 23.2334 36.2861 23.6434 37.1113 24.3731C37.9364 25.1029 38.4 26.0927 38.4 27.1247ZM56 27.1247C56 28.1567 55.5364 29.1465 54.7113 29.8763C53.8861 30.606 52.767 31.016 51.6 31.016C50.433 31.016 49.3139 30.606 48.4887 29.8763C47.6636 29.1465 47.2 28.1567 47.2 27.1247C47.2 26.0927 47.6636 25.1029 48.4887 24.3731C49.3139 23.6434 50.433 23.2334 51.6 23.2334C52.767 23.2334 53.8861 23.6434 54.7113 24.3731C55.5364 25.1029 56 26.0927 56 27.1247Z" fill="#2D2D2D"/>
</svg>
