<svg width="57" height="71" viewBox="0 0 57 71" fill="none" xmlns="http://www.w3.org/2000/svg">
<path fill-rule="evenodd" clip-rule="evenodd" d="M22.6559 7.38032C22.9531 3.2723 27.0079 0.095731 31.3782 1.14141L32.5713 1.43139C34.6879 1.94104 36.5668 3.43487 37.1976 5.67121C38.2033 9.25639 39.6342 16.7035 37.481 25.4863C38.1542 25.397 38.8295 25.3223 39.5062 25.2623C42.7656 24.9767 47.1359 24.9459 51.0079 26.1849C53.3759 26.945 55.5519 29.177 56.4936 31.778C57.3347 34.1154 57.225 36.8833 55.4239 39.3921C55.689 39.9149 55.8947 40.4553 56.0547 40.987C56.4067 42.1732 56.5713 43.4781 56.5713 44.7479C56.5713 46.0176 56.4067 47.3225 56.0547 48.5088C55.8764 49.1019 55.6433 49.7083 55.3233 50.2838C56.0959 51.9841 55.8124 53.8822 55.3096 55.3277C54.7948 56.755 54.0413 58.0921 53.0787 59.2863C53.3256 59.9541 53.4261 60.6571 53.4261 61.3293C53.4261 62.6694 53.0193 64.0753 52.2696 65.3363C50.7427 67.911 47.7119 70.0111 43.4285 70.0111V65.6175C46.0022 65.6175 47.5473 64.4224 48.3016 63.1571C48.6443 62.6028 48.8347 61.9738 48.8547 61.3293C48.8547 60.8021 48.6947 60.6044 48.6719 60.5824L47.0536 59.0271L48.6673 57.4718C49.5907 56.5886 50.5279 55.2266 50.9759 53.9393C51.4513 52.5685 51.1724 52.0017 50.953 51.7952L49.3393 50.2399L50.953 48.6846C51.1496 48.5 51.433 48.0695 51.657 47.3006C51.8764 46.5668 51.9999 45.6749 51.9999 44.7479C51.9999 43.8208 51.8764 42.9289 51.657 42.1952C51.4284 41.4307 51.1496 40.9958 50.953 40.8112L49.3393 39.2559L50.953 37.7006C52.5667 36.154 52.6581 34.5679 52.1736 33.2191C51.6159 31.6813 50.3633 30.6137 49.5633 30.3545C46.5782 29.401 42.9485 29.3703 39.9176 29.6339C38.236 29.7844 36.5657 30.0353 34.9165 30.3852L34.8525 30.3984L34.8388 30.4028C34.4417 30.4976 34.0254 30.4882 33.6334 30.3756C33.2414 30.2631 32.888 30.0514 32.6101 29.7628C32.3322 29.4742 32.14 29.1192 32.0536 28.7348C31.9672 28.3505 31.9897 27.9508 32.1188 27.5777C34.4192 20.8627 34.6494 13.6515 32.7816 6.81355C32.6445 6.32586 32.1965 5.86892 31.4651 5.69318L30.2674 5.40759C28.8685 5.06929 27.3325 6.093 27.2182 7.68348C26.8754 12.4374 26.1256 17.1297 25.0148 20.2052C24.2194 22.4108 22.2582 25.7763 19.3554 28.8914C16.4434 32.0196 12.4114 35.0864 7.40569 36.3957C5.60456 36.8702 4.57142 38.1355 4.57142 39.2515V56.8347C4.57142 57.977 5.57713 59.0974 7.09941 59.2512C13.0103 59.8531 15.9497 61.5798 18.4868 63.0648L18.6697 63.1746C19.9039 63.8952 20.9325 64.4752 22.2171 64.9013C23.4834 65.3187 25.0971 65.6175 27.4285 65.6175H43.4285V70.0111H27.4285C24.6628 70.0111 22.5371 69.6552 20.7268 69.0533C19.1702 68.507 17.6827 67.7936 16.2925 66.9268L16.0731 66.795C13.7691 65.4461 11.5063 64.1193 6.61941 63.6228C3.11771 63.2625 0 60.5473 0 56.8303V39.2559C0 35.5213 3.13142 32.9643 6.20341 32.1602C10.0845 31.1409 13.3988 28.7025 15.9497 25.9652C18.5097 23.2105 20.1279 20.3414 20.6994 18.7641C21.6091 16.2378 22.3268 12.0024 22.6559 7.38471V7.38032Z" fill="#2D2D2D"/>
</svg>
