<svg width="69" height="69" viewBox="0 0 69 69" fill="none" xmlns="http://www.w3.org/2000/svg">
<path d="M24.1876 28.4844C24.1876 29.9082 23.0334 31.0625 21.6095 31.0625C20.1857 31.0625 19.0314 29.9082 19.0314 28.4844C19.0314 27.0605 20.1857 25.9062 21.6095 25.9062C23.0334 25.9062 24.1876 27.0605 24.1876 28.4844Z" fill="#2D2D2D"/>
<path d="M28.0999 23.3403C30.0617 22.7766 32.1735 22.4688 34.3773 22.4688C36.6667 22.4688 38.8567 22.801 40.8825 23.4071C41.7919 23.6793 42.7497 23.1626 43.0218 22.2532C43.2939 21.3438 42.7773 20.386 41.8679 20.1139C39.5212 19.4117 36.9992 19.0312 34.3773 19.0312C31.8534 19.0312 29.422 19.3838 27.1505 20.0365C26.2382 20.2987 25.7111 21.2508 25.9733 22.1631C26.2354 23.0754 27.1875 23.6025 28.0999 23.3403Z" fill="#2D2D2D"/>
<path fill-rule="evenodd" clip-rule="evenodd" d="M34.3776 12.2502C24.142 12.2502 15.2252 18.1067 12.6499 26.4299H10.7626C8.62866 26.4299 7.01033 28.354 7.37597 30.4564L8.2492 35.4775C8.67872 37.9473 10.8223 39.7502 13.3292 39.7502H14.2323C15.2614 41.5137 16.597 43.112 18.1702 44.5003L15.6641 53.015C15.5112 53.5346 15.6122 54.096 15.9367 54.5298C16.2612 54.9636 16.7712 55.219 17.3129 55.219H24.1879C24.9146 55.219 25.5628 54.7619 25.8069 54.0774L27.4632 49.4315C29.6448 50.0281 31.9691 50.3492 34.3776 50.3492C36.8061 50.3492 39.149 50.0228 41.3464 49.4166L43.215 54.1333C43.4746 54.7886 44.108 55.219 44.8129 55.219H51.6879C52.2323 55.219 52.7445 54.9611 53.0687 54.5237C53.3929 54.0864 53.4907 53.5213 53.3324 53.0004L50.7139 44.3854C54.4718 41.0127 56.844 36.4206 56.844 31.2997C56.844 30.7998 56.8218 30.3054 56.7782 29.817C57.6737 29.4392 58.521 28.9036 59.1987 28.2911C60.2814 29.3438 62.0002 29.3438 62.0002 26.8598C62.0002 27.625 60.2814 27.625 60.4148 26.7681C60.558 26.4884 60.6654 26.1951 60.7229 25.892C60.8721 25.1053 60.6687 24.3131 60.0297 23.674C59.2846 22.9289 58.3178 22.948 57.6006 23.3393C56.9252 23.7077 56.3949 24.432 56.311 25.2704C56.2276 26.1046 56.5942 26.9215 57.4115 27.5174C57.133 27.7107 56.8332 27.8884 56.5223 28.0437C54.6863 18.8866 45.2332 12.2502 34.3776 12.2502ZM15.6506 28.5178C17.2122 21.4165 24.8172 15.6877 34.3776 15.6877C45.1896 15.6877 53.4065 22.9542 53.4065 31.2997C53.4065 35.612 51.2618 39.5825 47.6663 42.4646C47.118 42.9041 46.8925 43.6331 47.0969 44.3055L49.3691 51.7815H45.9807L43.9554 46.6692C43.6161 45.8128 42.6619 45.3761 41.792 45.6791C39.5184 46.4711 37.014 46.9117 34.3776 46.9117C31.7412 46.9117 29.2367 46.4711 26.9631 45.6791C26.0713 45.3685 25.0959 45.8355 24.7787 46.725L22.976 51.7815H19.6104L21.7862 44.3892C21.9844 43.7156 21.753 42.9891 21.2016 42.5543C19.2999 41.0546 17.7938 39.2491 16.7873 37.2566C16.495 36.6777 15.9017 36.3127 15.2532 36.3127H13.3292C12.4936 36.3127 11.779 35.7117 11.6359 34.8885L10.7626 29.8674H13.972C14.779 29.8674 15.4773 29.306 15.6506 28.5178ZM59.0342 25.5718C58.9956 25.7756 58.8872 26.0223 58.6962 26.2954C58.6417 26.267 58.5913 26.2383 58.5445 26.2094C58.0452 25.9007 58.0047 25.6071 58.0213 25.4414C58.0448 25.2057 58.2128 24.9631 58.4236 24.8481C58.5926 24.7559 58.7001 24.7751 58.8143 24.8893C59.0346 25.1096 59.082 25.32 59.0342 25.5718Z" fill="#2D2D2D"/>
<path fill-rule="evenodd" clip-rule="evenodd" d="M64.6875 34.5C64.6875 51.1721 51.1721 64.6875 34.5 64.6875C26.94 64.6875 20.0291 61.9085 14.7331 57.3163L57.3163 14.7331C61.9085 20.0291 64.6875 26.94 64.6875 34.5ZM11.6837 54.2669L54.2669 11.6837C48.9709 7.09151 42.06 4.3125 34.5 4.3125C17.8279 4.3125 4.3125 17.8279 4.3125 34.5C4.3125 42.06 7.09151 48.9709 11.6837 54.2669ZM69 34.5C69 53.5538 53.5538 69 34.5 69C15.4462 69 0 53.5538 0 34.5C0 15.4462 15.4462 0 34.5 0C53.5538 0 69 15.4462 69 34.5Z" fill="#2D2D2D"/>
</svg>
