<svg width="108" height="29" viewBox="0 0 108 29" fill="none" xmlns="http://www.w3.org/2000/svg">
<path d="M6.49939 28.2589C5.8038 28.6154 5.01618 27.9923 5.15622 27.1964L6.64973 18.708L0.309534 12.6836C-0.282991 12.1206 0.0237289 11.0911 0.817509 10.9787L9.63476 9.72977L13.5662 1.96457C13.9203 1.26507 14.8797 1.26507 15.2338 1.96457L19.1652 9.72977L27.9825 10.9787C28.7763 11.0911 29.083 12.1206 28.4905 12.6836L22.1503 18.708L23.6438 27.1964C23.7838 27.9923 22.9962 28.6154 22.3006 28.2589L14.4 24.2099L6.49939 28.2589Z" fill="#2D2D2D"/>
<path d="M49.2344 9.59867L53.1658 1.95627C53.3424 1.61302 53.6694 1.44091 53.9968 1.43995C54.3261 1.43897 54.6559 1.61108 54.8334 1.95627L58.7648 9.59868L67.5821 10.8279C68.0629 10.8949 68.3651 11.2931 68.3968 11.7198C68.4005 11.7693 68.4006 11.8192 68.3968 11.869C68.3796 12.0985 68.282 12.3262 68.0901 12.5058L61.7499 18.4349L63.2434 26.7891C63.3834 27.5724 62.5958 28.1856 61.9002 27.8348L53.9996 23.8499L46.099 27.8348C46.0121 27.8786 45.9237 27.9074 45.8358 27.9227C45.221 28.0296 44.6333 27.4745 44.7558 26.7891L46.2493 18.4349L39.9091 12.5058C39.6962 12.3066 39.5994 12.0482 39.5996 11.7937C39.5998 11.6056 39.6529 11.4196 39.7513 11.2613C39.8903 11.0378 40.1195 10.8694 40.4171 10.8279L49.2344 9.59867ZM53.9968 21.8003C54.14 21.7999 54.2832 21.833 54.4151 21.8995L61.0495 25.2457L59.7998 18.2556C59.7409 17.926 59.8517 17.5886 60.0927 17.3632L65.3251 12.4701L58.0309 11.4532C57.7294 11.4112 57.4661 11.2222 57.3238 10.9457L53.9996 4.48359L53.9968 4.48899V21.8003Z" fill="#2D2D2D"/>
<path d="M84.3593 26.7313C84.2193 27.5295 85.0069 28.1543 85.7025 27.7968L93.6031 23.7361L101.504 27.7968C102.199 28.1543 102.987 27.5295 102.847 26.7313L101.353 18.2182L107.694 12.1762C108.286 11.6116 107.979 10.5792 107.186 10.4664L98.3684 9.21383L94.4369 1.42605C94.0828 0.724519 93.1235 0.724519 92.7693 1.42605L88.8379 9.21383L80.0206 10.4664C79.2269 10.5792 78.9201 11.6116 79.5127 12.1762L85.8529 18.2182L84.3593 26.7313ZM93.1876 21.7486L86.5533 25.1585L87.8029 18.0354C87.8618 17.6996 87.7511 17.3558 87.51 17.126L82.2777 12.1398L89.5718 11.1036C89.8734 11.0608 90.1367 10.8682 90.2789 10.5864L93.6031 4.00144L96.9274 10.5864C97.0696 10.8682 97.3329 11.0608 97.6344 11.1036L104.929 12.1398L99.6963 17.126C99.4552 17.3558 99.3444 17.6996 99.4033 18.0354L100.653 25.1585L94.0186 21.7486C93.7565 21.6139 93.4497 21.6139 93.1876 21.7486Z" fill="#2D2D2D"/>
</svg>
