<svg width="64" height="60" viewBox="0 0 64 60" fill="none" xmlns="http://www.w3.org/2000/svg">
<path d="M29.8662 6.39994C29.8662 5.83414 30.091 5.29152 30.4911 4.89144C30.8911 4.49136 31.4337 4.2666 31.9995 4.2666H61.8662C62.432 4.2666 62.9746 4.49136 63.3747 4.89144C63.7748 5.29152 63.9995 5.83414 63.9995 6.39994V10.6666C63.9995 11.2324 63.7748 11.775 63.3747 12.1751C62.9746 12.5752 62.432 12.7999 61.8662 12.7999H31.9995C31.4337 12.7999 30.8911 12.5752 30.4911 12.1751C30.091 11.775 29.8662 11.2324 29.8662 10.6666V6.39994Z" fill="#2D2D2D"/>
<path fill-rule="evenodd" clip-rule="evenodd" d="M8.53333 0C6.27015 0 4.09967 0.899045 2.49936 2.49936C0.899045 4.09967 0 6.27015 0 8.53333L0 17.0667C0 19.3298 0.899045 21.5003 2.49936 23.1006C4.09967 24.701 6.27015 25.6 8.53333 25.6H17.0667C19.3298 25.6 21.5003 24.701 23.1006 23.1006C24.701 21.5003 25.6 19.3298 25.6 17.0667V8.53333C25.6 6.27015 24.701 4.09967 23.1006 2.49936C21.5003 0.899045 19.3298 0 17.0667 0H8.53333ZM8.53333 34.1333C6.27015 34.1333 4.09967 35.0324 2.49936 36.6327C0.899045 38.233 0 40.4035 0 42.6667L0 51.2C0 53.4632 0.899045 55.6337 2.49936 57.234C4.09967 58.8343 6.27015 59.7333 8.53333 59.7333H17.0667C19.3298 59.7333 21.5003 58.8343 23.1006 57.234C24.701 55.6337 25.6 53.4632 25.6 51.2V42.6667C25.6 40.4035 24.701 38.233 23.1006 36.6327C21.5003 35.0324 19.3298 34.1333 17.0667 34.1333H8.53333ZM12.1771 18.5771L20.7104 10.0437C20.9088 9.84539 21.0661 9.60991 21.1734 9.35076C21.2808 9.0916 21.336 8.81384 21.336 8.53333C21.336 8.25283 21.2808 7.97507 21.1734 7.71591C21.0661 7.45676 20.9088 7.22128 20.7104 7.02293C20.5121 6.82458 20.2766 6.66725 20.0174 6.5599C19.7583 6.45256 19.4805 6.39731 19.2 6.39731C18.9195 6.39731 18.6417 6.45256 18.3826 6.5599C18.1234 6.66725 17.8879 6.82458 17.6896 7.02293L10.6667 14.0501L7.9104 11.2896C7.71205 11.0913 7.47658 10.9339 7.21742 10.8266C6.95827 10.7192 6.68051 10.664 6.4 10.664C6.11949 10.664 5.84173 10.7192 5.58258 10.8266C5.32342 10.9339 5.08795 11.0913 4.8896 11.2896C4.69125 11.4879 4.53391 11.7234 4.42657 11.9826C4.31922 12.2417 4.26397 12.5195 4.26397 12.8C4.26397 13.0805 4.31922 13.3583 4.42657 13.6174C4.53391 13.8766 4.69125 14.1121 4.8896 14.3104L9.15627 18.5771C9.35443 18.7757 9.58985 18.9334 9.84903 19.0409C10.1082 19.1485 10.3861 19.2038 10.6667 19.2038C10.9473 19.2038 11.2251 19.1485 11.4843 19.0409C11.7435 18.9334 11.9789 18.7757 12.1771 18.5771ZM12.1771 52.7104L20.7104 44.1771C21.111 43.7765 21.336 43.2332 21.336 42.6667C21.336 42.1002 21.111 41.5569 20.7104 41.1563C20.3098 40.7557 19.7665 40.5306 19.2 40.5306C18.6335 40.5306 18.0902 40.7557 17.6896 41.1563L10.6667 48.1835L7.9104 45.4229C7.50982 45.0224 6.96651 44.7973 6.4 44.7973C5.83349 44.7973 5.29018 45.0224 4.8896 45.4229C4.48902 45.8235 4.26397 46.3668 4.26397 46.9333C4.26397 47.4998 4.48902 48.0432 4.8896 48.4437L9.15627 52.7104C9.35443 52.9091 9.58985 53.0667 9.84903 53.1742C10.1082 53.2818 10.3861 53.3372 10.6667 53.3372C10.9473 53.3372 11.2251 53.2818 11.4843 53.1742C11.7435 53.0667 11.9789 52.9091 12.1771 52.7104Z" fill="#2D2D2D"/>
<path d="M29.8662 40.5332C29.8662 39.9674 30.091 39.4248 30.4911 39.0247C30.8911 38.6247 31.4337 38.3999 31.9995 38.3999H61.8662C62.432 38.3999 62.9746 38.6247 63.3747 39.0247C63.7748 39.4248 63.9995 39.9674 63.9995 40.5332V44.7999C63.9995 45.3657 63.7748 45.9083 63.3747 46.3084C62.9746 46.7085 62.432 46.9332 61.8662 46.9332H31.9995C31.4337 46.9332 30.8911 46.7085 30.4911 46.3084C30.091 45.9083 29.8662 45.3657 29.8662 44.7999V40.5332Z" fill="#2D2D2D"/>
<path fill-rule="evenodd" clip-rule="evenodd" d="M29.8662 19.2002C29.8662 18.6344 30.091 18.0918 30.4911 17.6917C30.8911 17.2917 31.4337 17.0669 31.9995 17.0669H53.3329C53.8987 17.0669 54.4413 17.2917 54.8414 17.6917C55.2415 18.0918 55.4662 18.6344 55.4662 19.2002C55.4662 19.766 55.2415 20.3086 54.8414 20.7087C54.4413 21.1088 53.8987 21.3336 53.3329 21.3336H31.9995C31.4337 21.3336 30.8911 21.1088 30.4911 20.7087C30.091 20.3086 29.8662 19.766 29.8662 19.2002ZM29.8662 53.3336C29.8662 52.7678 30.091 52.2251 30.4911 51.8251C30.8911 51.425 31.4337 51.2002 31.9995 51.2002H53.3329C53.8987 51.2002 54.4413 51.425 54.8414 51.8251C55.2415 52.2251 55.4662 52.7678 55.4662 53.3336C55.4662 53.8994 55.2415 54.442 54.8414 54.8421C54.4413 55.2421 53.8987 55.4669 53.3329 55.4669H31.9995C31.4337 55.4669 30.8911 55.2421 30.4911 54.8421C30.091 54.442 29.8662 53.8994 29.8662 53.3336Z" fill="#2D2D2D"/>
</svg>
