<svg width="88" height="636" viewBox="0 0 88 636" fill="none" xmlns="http://www.w3.org/2000/svg">
<path d="M56.384 560.104L68 562.312L68 584.872L67.04 584.872C62.752 584.552 57.632 584.392 51.68 584.392L13.472 584.392L13.472 610.888L51.68 610.888C56.992 610.888 62.112 610.728 67.04 610.408L68 610.408L68 626.152L67.04 626.152C62.752 625.768 57.632 625.576 51.68 625.576L11.264 625.576C11.264 626.408 11.456 627.784 11.84 629.704C12.224 631.624 12.608 633.32 12.992 634.792L12.416 635.176L0.799995 632.968L0.799992 569.128L1.75999 569.128C6.68799 569.512 11.808 569.704 17.12 569.704L57.536 569.704C57.536 568.872 57.344 567.496 56.96 565.576C56.512 563.656 56.128 561.96 55.808 560.488L56.384 560.104ZM86.24 529.642C81.12 529.322 76 529.162 70.88 529.162L29.696 529.162C29.696 530.25 30.112 532.49 30.944 535.882L31.232 537.226L30.656 537.514L20 535.594L20 528.778C20 527.178 19.936 525.322 19.808 523.21C19.68 521.098 19.52 519.53 19.328 518.506L19.904 518.314C20.416 518.314 20.928 518.346 21.44 518.41C21.888 518.41 22.368 518.41 22.88 518.41C23.328 518.474 23.808 518.506 24.32 518.506C24.832 518.506 25.344 518.538 25.856 518.602C23.68 516.81 22.016 514.538 20.864 511.786C19.648 508.97 19.04 505.962 19.04 502.762C19.04 498.346 20.128 494.41 22.304 490.954C24.416 487.498 27.36 484.81 31.136 482.89C34.912 480.906 39.2 479.914 44 479.914C48.736 479.914 52.992 480.906 56.768 482.89C60.544 484.874 63.52 487.594 65.696 491.05C67.872 494.506 68.96 498.41 68.96 502.762C68.96 505.578 68.48 508.234 67.52 510.73C66.56 513.162 65.248 515.242 63.584 516.97L77.504 516.97C77.504 515.754 77.088 513.386 76.256 509.866C76.192 509.226 76.096 508.746 75.968 508.426L76.544 508.042L87.2 510.154L87.2 529.642L86.24 529.642ZM58.208 505.066C58.208 502.762 57.6 500.682 56.384 498.826C55.168 496.906 53.472 495.402 51.296 494.314C49.12 493.226 46.688 492.682 44 492.682C41.312 492.682 38.88 493.226 36.704 494.314C34.528 495.402 32.832 496.906 31.616 498.826C30.4 500.682 29.792 502.762 29.792 505.066C29.792 507.434 30.4 509.546 31.616 511.402C32.832 513.258 34.528 514.73 36.704 515.818C38.88 516.906 41.312 517.45 44 517.45C46.688 517.45 49.12 516.906 51.296 515.818C53.472 514.73 55.168 513.258 56.384 511.402C57.6 509.546 58.208 507.434 58.208 505.066ZM68.96 428.228C68.96 433.156 67.904 437.605 65.792 441.573C63.616 445.477 60.64 448.549 56.864 450.789C53.024 453.029 48.736 454.149 44 454.149C39.2 454.149 34.912 453.029 31.136 450.789C27.36 448.549 24.416 445.477 22.304 441.573C20.128 437.669 19.04 433.221 19.04 428.229C19.04 423.173 20.128 418.693 22.304 414.789C24.416 410.885 27.36 407.845 31.136 405.668C34.912 403.429 39.2 402.309 44 402.309C48.736 402.309 52.992 403.429 56.768 405.668C60.544 407.909 63.52 411.013 65.696 414.98C67.872 418.884 68.96 423.301 68.96 428.228ZM58.208 428.228C58.208 425.732 57.6 423.492 56.384 421.509C55.168 419.461 53.472 417.893 51.296 416.805C49.12 415.653 46.688 415.077 44 415.077C41.312 415.077 38.88 415.653 36.704 416.805C34.528 417.893 32.832 419.461 31.616 421.509C30.4 423.493 29.792 425.733 29.792 428.229C29.792 430.725 30.4 432.965 31.616 434.949C32.832 436.933 34.528 438.501 36.704 439.653C38.88 440.805 41.312 441.381 44 441.381C46.688 441.381 49.12 440.805 51.296 439.653C53.472 438.501 55.168 436.933 56.384 434.949C57.6 432.965 58.208 430.725 58.208 428.228ZM67.04 370.398C61.92 370.078 56.8 369.918 51.68 369.918L29.696 369.918C29.696 371.006 30.112 373.246 30.944 376.638L31.232 377.982L30.656 378.27L20 376.35L20 347.742L15.488 350.238L14.912 349.854L14.816 338.43L34.976 332.67L37.856 342.27L36.224 343.134C34.816 343.646 33.632 344.542 32.672 345.822C31.712 347.038 31.008 348.542 30.56 350.334C30.048 352.126 29.792 354.206 29.792 356.574L29.792 357.63L58.304 357.534C58.304 356.51 58.144 354.814 57.824 352.446C57.44 350.014 57.088 348.03 56.768 346.494L57.344 346.11L68 348.222L68 370.398L67.04 370.398ZM86.24 302.542C81.12 302.222 76 302.062 70.88 302.062L29.696 302.062C29.696 303.15 30.112 305.39 30.944 308.782L31.232 310.126L30.656 310.414L20 308.494L20 301.678C20 300.078 19.936 298.222 19.808 296.11C19.68 293.998 19.52 292.43 19.328 291.406L19.904 291.214C20.416 291.214 20.928 291.246 21.44 291.31C21.888 291.31 22.368 291.31 22.88 291.31C23.328 291.374 23.808 291.406 24.32 291.406C24.832 291.406 25.344 291.438 25.856 291.502C23.68 289.71 22.016 287.438 20.864 284.686C19.648 281.87 19.04 278.862 19.04 275.662C19.04 271.246 20.128 267.31 22.304 263.854C24.416 260.398 27.36 257.71 31.136 255.79C34.912 253.806 39.2 252.814 44 252.814C48.736 252.814 52.992 253.806 56.768 255.79C60.544 257.774 63.52 260.494 65.696 263.95C67.872 267.406 68.96 271.31 68.96 275.662C68.96 278.478 68.48 281.134 67.52 283.63C66.56 286.062 65.248 288.142 63.584 289.87L77.504 289.87C77.504 288.654 77.088 286.286 76.256 282.766C76.192 282.126 76.096 281.646 75.968 281.326L76.544 280.942L87.2 283.054L87.2 302.542L86.24 302.542ZM58.208 277.966C58.208 275.662 57.6 273.582 56.384 271.726C55.168 269.806 53.472 268.302 51.296 267.214C49.12 266.126 46.688 265.582 44 265.582C41.312 265.582 38.88 266.126 36.704 267.214C34.528 268.302 32.832 269.806 31.616 271.726C30.4 273.582 29.792 275.662 29.792 277.966C29.792 280.334 30.4 282.446 31.616 284.302C32.832 286.158 34.528 287.63 36.704 288.718C38.88 289.806 41.312 290.35 44 290.35C46.688 290.35 49.12 289.806 51.296 288.718C53.472 287.63 55.168 286.158 56.384 284.302C57.6 282.446 58.208 280.334 58.208 277.966ZM69.056 211.112C69.056 216.232 67.84 220.2 65.408 223.016C62.912 225.768 59.648 227.144 55.616 227.144C52.032 227.144 49.152 226.12 46.976 224.072C44.8 222.024 43.232 219.368 42.272 216.104C41.248 212.776 40.544 208.712 40.16 203.912C39.968 201.416 39.712 199.4 39.392 197.864C39.072 196.328 38.592 195.112 37.952 194.216C37.312 193.32 36.448 192.872 35.36 192.872C33.376 192.872 31.84 193.64 30.752 195.176C29.6 196.712 29.024 198.792 29.024 201.416C29.024 203.4 29.408 205.224 30.176 206.888C30.88 208.552 31.936 210.024 33.344 211.304C34.688 212.52 36.256 213.48 38.048 214.184L38.432 214.376L36.8 223.496L16.064 218.12L16.064 207.08L16.544 206.6L21.056 208.52C20.608 207.624 20.288 206.824 20.096 206.12C19.776 205.16 19.52 204.136 19.328 203.048C19.136 201.896 19.04 200.616 19.04 199.208C19.04 193.896 20.736 189.672 24.128 186.536C27.52 183.4 32.128 181.832 37.952 181.832L58.304 181.832C58.304 181 57.888 178.76 57.056 175.112C56.992 174.856 56.96 174.632 56.96 174.44C56.896 174.248 56.832 174.056 56.768 173.864L57.344 173.48L68 175.4L68 193.064L67.04 193.064C66.528 193 65.984 192.968 65.408 192.968C64.768 192.904 64.128 192.872 63.488 192.872C63.104 192.872 62.752 192.872 62.432 192.872C62.048 192.808 61.696 192.776 61.376 192.776C63.744 194.696 65.632 197.288 67.04 200.552C68.384 203.816 69.056 207.336 69.056 211.112ZM58.976 207.656C58.976 205.096 58.4 202.696 57.248 200.456C56.032 198.152 54.464 196.328 52.544 194.984C50.56 193.64 48.448 192.968 46.208 192.968L45.056 192.968C45.76 194.056 46.368 195.528 46.88 197.384C47.328 199.176 47.648 201.032 47.84 202.952C48.096 206.664 48.672 209.512 49.568 211.496C50.464 213.48 51.968 214.472 54.08 214.472C55.68 214.472 56.896 213.864 57.728 212.648C58.56 211.432 58.976 209.768 58.976 207.656ZM67.232 147.305C64.352 146.345 60.96 145.545 57.056 144.905C53.088 144.201 48.576 143.849 43.52 143.849L29.984 143.849C29.92 144.617 29.888 145.417 29.888 146.249C29.824 147.081 29.792 147.913 29.792 148.745C29.728 149.129 29.696 149.513 29.696 149.897C29.696 150.281 29.696 150.697 29.696 151.145L20 149.129L20 144.905C20 140.553 19.904 136.905 19.712 133.961C19.456 131.017 19.2 128.553 18.944 126.569L19.232 126.185C23.456 124.585 27.936 122.633 32.672 120.329C33.248 120.073 33.792 119.849 34.304 119.657C34.752 119.401 35.232 119.177 35.744 118.985L44.96 114.569L20 102.665L20 96.0415C20 94.4415 19.936 92.6175 19.808 90.5695C19.68 88.4575 19.52 86.8575 19.328 85.7695L19.904 85.4815C23.744 85.8655 29.216 86.0575 36.32 86.0575L58.304 86.0575C58.304 85.2255 57.888 82.9855 57.056 79.3375C56.992 79.0815 56.96 78.8575 56.96 78.6655C56.896 78.4735 56.832 78.2815 56.768 78.0895L57.344 77.7055L68 79.6255L68 98.8255L67.232 98.8255C65.952 98.7615 64.736 98.7295 63.584 98.7295C62.432 98.6655 61.312 98.6015 60.224 98.5375C58.624 98.4735 56.864 98.4415 54.944 98.4415L32.672 98.4415L68 115.049L68 116.393L33.248 133.481C33.184 133.481 33.12 133.513 33.056 133.577C32.992 133.641 32.96 133.673 32.96 133.673C32.896 133.737 32.832 133.801 32.768 133.865C32.704 133.929 32.672 133.993 32.672 134.057L58.592 134.057C58.464 132.841 58.336 131.849 58.208 131.081C58.08 129.801 57.984 128.777 57.92 128.009L58.496 127.721L68 128.969L68 147.305L67.232 147.305ZM69.056 37.8062C69.056 42.9262 67.84 46.8942 65.408 49.7102C62.912 52.4622 59.648 53.8382 55.616 53.8382C52.032 53.8382 49.152 52.8142 46.976 50.7662C44.8 48.7182 43.232 46.0622 42.272 42.7982C41.248 39.4702 40.544 35.4062 40.16 30.6062C39.968 28.1102 39.712 26.0942 39.392 24.5582C39.072 23.0222 38.592 21.8062 37.952 20.9102C37.312 20.0142 36.448 19.5662 35.36 19.5662C33.376 19.5662 31.84 20.3342 30.752 21.8702C29.6 23.4062 29.024 25.4862 29.024 28.1102C29.024 30.0942 29.408 31.9182 30.176 33.5822C30.88 35.2462 31.936 36.7182 33.344 37.9982C34.688 39.2142 36.256 40.1742 38.048 40.8782L38.432 41.0702L36.8 50.1902L16.064 44.8142L16.064 33.7742L16.544 33.2942L21.056 35.2142C20.608 34.3182 20.288 33.5182 20.096 32.8142C19.776 31.8542 19.52 30.8302 19.328 29.7422C19.136 28.5902 19.04 27.3102 19.04 25.9022C19.04 20.5902 20.736 16.3662 24.128 13.2302C27.52 10.0942 32.128 8.52622 37.952 8.52622L58.304 8.52622C58.304 7.69422 57.888 5.45422 57.056 1.80622C56.992 1.55022 56.96 1.32622 56.96 1.13422C56.896 0.942218 56.832 0.750219 56.768 0.558221L57.344 0.174221L68 2.09422L68 19.7582L67.04 19.7582C66.528 19.6942 65.984 19.6622 65.408 19.6622C64.768 19.5982 64.128 19.5662 63.488 19.5662C63.104 19.5662 62.752 19.5662 62.432 19.5662C62.048 19.5022 61.696 19.4702 61.376 19.4702C63.744 21.3902 65.632 23.9822 67.04 27.2462C68.384 30.5102 69.056 34.0302 69.056 37.8062ZM58.976 34.3502C58.976 31.7902 58.4 29.3902 57.248 27.1502C56.032 24.8462 54.464 23.0222 52.544 21.6782C50.56 20.3342 48.448 19.6622 46.208 19.6622L45.056 19.6622C45.76 20.7502 46.368 22.2222 46.88 24.0782C47.328 25.8702 47.648 27.7262 47.84 29.6462C48.096 33.3582 48.672 36.2062 49.568 38.1902C50.464 40.1742 51.968 41.1662 54.08 41.1662C55.68 41.1662 56.896 40.5582 57.728 39.3422C58.56 38.1262 58.976 36.4622 58.976 34.3502Z" fill="url(#paint0_linear_463_139)"/>
<defs>
<linearGradient id="paint0_linear_463_139" x1="-66.022" y1="402.648" x2="217.132" y2="375.462" gradientUnits="userSpaceOnUse">
<stop stop-color="#FF49FE"/>
<stop offset="1" stop-color="#9436AA"/>
</linearGradient>
</defs>
</svg>
