<svg width="229" height="59" viewBox="0 0 229 59" fill="none" xmlns="http://www.w3.org/2000/svg">
<path d="M7.34196 39.9078C7.16026 39.9078 6.79686 39.8897 6.25176 39.8533C5.70667 39.817 5.12523 39.7443 4.50745 39.6353C3.92601 39.5626 3.41725 39.4536 2.98118 39.3082C2.5451 39.1629 2.32706 38.963 2.32706 38.7086C2.32706 38.5269 2.41791 38.3816 2.59961 38.2725C2.81765 38.1999 2.99935 38.1635 3.14471 38.1635C3.8715 38.1635 4.5983 38.2725 5.3251 38.4906C6.0519 38.7086 6.81503 38.8176 7.61451 38.8176C10.122 38.8176 12.6476 38.3452 15.1914 37.4004C17.7352 36.4192 20.1336 35.0746 22.3867 33.3667C24.6761 31.6587 26.6929 29.7145 28.4373 27.5341C30.2179 25.3174 31.617 22.9735 32.6345 20.5024C33.652 17.9949 34.1608 15.4693 34.1608 12.9255C34.1608 10.1273 33.543 7.92876 32.3075 6.3298C31.0719 4.73085 29.4184 3.58615 27.3471 2.89569C25.312 2.20523 23.0408 1.86 20.5333 1.86C19.4431 1.86 18.1167 1.96902 16.5541 2.18706C15.0278 2.4051 13.4289 2.75033 11.7573 3.22275C10.122 3.69517 8.57752 4.31294 7.12392 5.07608C5.67033 5.83922 4.48928 6.76588 3.58078 7.85608C2.70863 8.90993 2.27255 10.1637 2.27255 11.6173C2.27255 12.4531 2.49059 13.0709 2.92667 13.4706C3.39908 13.8703 3.99869 14.161 4.72549 14.3427C4.79817 14.3791 4.92536 14.4154 5.10706 14.4518C5.28876 14.4518 5.37961 14.5244 5.37961 14.6698C5.16157 14.9605 4.79817 15.1059 4.28941 15.1059C3.16288 15.1059 2.32706 14.7788 1.78196 14.1247C1.20052 13.4342 0.909804 12.5439 0.909804 11.4537C0.909804 9.78209 1.38222 8.31033 2.32706 7.03843C3.30824 5.76654 4.56196 4.71268 6.08824 3.87686C7.65085 3.00471 9.32248 2.29608 11.1031 1.75098C12.9201 1.20588 14.7008 0.824315 16.4451 0.606275C18.1894 0.351897 19.6975 0.224708 20.9694 0.224708C23.9129 0.224708 26.5294 0.588106 28.8188 1.3149C31.1446 2.00536 32.9797 3.24092 34.3243 5.02157C35.6689 6.80222 36.3412 9.34601 36.3412 12.6529C36.3412 15.4148 35.7779 18.1403 34.6514 20.8294C33.5248 23.4822 31.9804 25.9533 30.018 28.2427C28.0557 30.5322 25.8208 32.5672 23.3133 34.3478C20.8422 36.0922 18.2258 37.4549 15.4639 38.4361C12.7384 39.4173 10.0311 39.9078 7.34196 39.9078ZM13.9376 34.7294C12.8111 34.7294 11.939 34.4569 11.3212 33.9118C10.7397 33.3667 10.3218 32.658 10.0675 31.7859C9.84941 30.9137 9.74039 30.0234 9.74039 29.1149C9.74039 27.4069 9.90392 25.4264 10.231 23.1733C10.558 20.8839 11.0486 18.5582 11.7027 16.1961C12.3569 13.7976 13.1382 11.5627 14.0467 9.49137C14.9915 7.42 16.0635 5.7302 17.2627 4.42196C17.5171 4.16758 17.826 4.04039 18.1894 4.04039C18.4438 4.04039 18.6982 4.0949 18.9525 4.20392C19.2433 4.31294 19.4068 4.51281 19.4431 4.80353L19.2796 5.13059C18.9525 5.78471 18.5528 6.40248 18.0804 6.98392C17.608 7.52902 17.1901 8.12863 16.8267 8.78275C15.1187 11.6899 13.7378 14.8697 12.6839 18.322C11.6301 21.7379 11.1031 25.1357 11.1031 28.5153C11.1031 29.5328 11.194 30.5503 11.3757 31.5678C11.5937 32.5854 12.266 33.294 13.3925 33.6937C13.5742 33.7301 13.7559 33.8027 13.9376 33.9118C14.1557 34.0208 14.2647 34.1843 14.2647 34.4024C14.2647 34.6204 14.1557 34.7294 13.9376 34.7294ZM41.6997 38C40.7186 38 39.9554 37.5639 39.4103 36.6918C38.9016 35.8196 38.5563 34.7658 38.3746 33.5302C38.1929 32.2583 38.1021 31.0773 38.1021 29.9871C38.1021 29.4783 38.1021 29.0241 38.1021 28.6243C38.1384 28.1882 38.1748 27.8248 38.2111 27.5341H38.0476C37.6115 27.5341 37.3935 27.3706 37.3935 27.0435C37.4661 26.8618 37.5933 26.7165 37.775 26.6075C37.9931 26.4621 38.1929 26.3712 38.3746 26.3349C38.5563 24.7359 38.9016 23.1007 39.4103 21.429C39.9191 19.7574 40.6095 18.2493 41.4817 16.9047V16.5776C41.4817 16.2142 41.6997 15.9962 42.1358 15.9235C42.3175 15.7418 42.4992 15.542 42.6809 15.3239C42.899 15.0695 43.1352 14.9424 43.3895 14.9424C43.6803 14.9424 43.8983 15.0695 44.0437 15.3239C44.2254 15.542 44.2435 15.7782 44.0982 16.0325C44.7886 16.1779 45.4064 16.4686 45.9515 16.9047C46.5329 17.3044 46.8237 17.9041 46.8237 18.7035C46.8237 19.7574 46.4239 20.8476 45.6244 21.9741C44.8613 23.0643 43.9346 24.0637 42.8444 24.9722C41.7906 25.8443 40.8276 26.4984 39.9554 26.9345C39.8464 27.8067 39.7737 28.697 39.7374 29.6055C39.7374 30.4776 39.7374 31.3498 39.7374 32.222C39.7374 32.658 39.7556 33.2031 39.7919 33.8573C39.8646 34.5114 40.0281 35.0928 40.2825 35.6016C40.5732 36.1103 41.0456 36.3647 41.6997 36.3647C42.3902 36.3647 43.0625 36.0558 43.7166 35.438C44.4071 34.8203 45.0612 34.039 45.679 33.0941C46.3331 32.1129 46.9327 31.0954 47.4778 30.0416C48.0229 28.9877 48.4953 27.9884 48.895 27.0435C49.2948 26.0987 49.5855 25.3719 49.7672 24.8631C49.8399 24.6814 49.9307 24.5179 50.0397 24.3726C50.1488 24.1908 50.3123 24.1 50.5303 24.1C50.8211 24.1 50.9664 24.2817 50.9664 24.6451C50.9664 25.2265 50.7665 26.0624 50.3668 27.1525C49.9671 28.2064 49.422 29.3511 48.7315 30.5867C48.0774 31.8222 47.3324 33.0033 46.4966 34.1298C45.6971 35.2563 44.8795 36.183 44.0437 36.9098C43.2078 37.6366 42.4265 38 41.6997 38ZM40.228 25.2447C40.9184 24.8086 41.6089 24.2635 42.2994 23.6094C42.9898 22.9553 43.5712 22.2103 44.0437 21.3745C44.5161 20.5387 44.7523 19.7029 44.7523 18.8671C44.7523 18.431 44.5343 18.1221 44.0982 17.9404C43.6621 17.7224 43.2805 17.5952 42.9535 17.5588C42.263 18.6854 41.6816 19.9209 41.2092 21.2655C40.7731 22.6101 40.446 23.9365 40.228 25.2447ZM50.9451 38.7631C50.6181 38.7631 50.4 38.6541 50.291 38.4361C50.182 38.218 50.1275 37.9818 50.1275 37.7275V37.6184C50.1275 35.6561 50.2728 33.8209 50.5635 32.1129C50.8543 30.405 51.1268 28.6788 51.3812 26.9345C51.6719 25.1539 51.8173 23.2097 51.8173 21.102C51.8173 20.5205 51.7809 19.8482 51.7083 19.0851C51.6719 18.2856 51.5447 17.5043 51.3267 16.7412C51.145 15.978 50.8543 15.3784 50.4545 14.9424C50.3092 14.797 50.2365 14.6153 50.2365 14.3973C50.2365 14.0702 50.3818 13.7795 50.6726 13.5251C50.9633 13.2707 51.2722 13.1254 51.5992 13.089L52.0898 13.3071C52.5259 13.7068 52.8348 14.4154 53.0165 15.4329C53.1982 16.4141 53.3072 17.4135 53.3435 18.431C53.3799 19.4485 53.3981 20.248 53.3981 20.8294C53.3981 21.6289 53.3799 22.4284 53.3435 23.2278C53.3072 24.0273 53.2527 24.845 53.18 25.6808C53.3617 25.2084 53.6161 24.6088 53.9432 23.882C54.2702 23.1188 54.6518 22.3739 55.0879 21.6471C55.5603 20.8839 56.0509 20.248 56.5596 19.7392C57.1047 19.2305 57.6862 18.9761 58.3039 18.9761C58.9217 18.9761 59.3941 19.3213 59.7212 20.0118C60.0483 20.6659 60.2663 21.4835 60.3753 22.4647C60.5207 23.4459 60.6115 24.3907 60.6479 25.2992C60.6842 26.1714 60.7024 26.8255 60.7024 27.2616C60.9204 26.7165 61.2656 25.9352 61.7381 24.9176C62.2468 23.9001 62.8283 22.7918 63.4824 21.5925C64.1728 20.3933 64.8996 19.2486 65.6628 18.1584C66.4259 17.0682 67.1709 16.1779 67.8977 15.4875C68.6245 14.7607 69.2967 14.3973 69.9145 14.3973C70.4233 14.3973 70.7322 14.6698 70.8412 15.2149C70.9866 15.76 71.0592 16.2142 71.0592 16.5776C71.0592 18.0312 70.9139 19.503 70.6232 20.9929C70.3688 22.4829 70.0962 23.991 69.8055 25.5173C69.5511 27.0435 69.4239 28.588 69.4239 30.1506C69.4239 30.3323 69.4239 30.732 69.4239 31.3498C69.4603 31.9676 69.533 32.549 69.642 33.0941C69.7873 33.6029 70.0235 33.8573 70.3506 33.8573C70.8957 33.8573 71.459 33.5847 72.0404 33.0396C72.6218 32.4945 73.1488 31.8767 73.6212 31.1863C74.13 30.4595 74.5479 29.8235 74.8749 29.2784C75.2383 28.697 75.4745 28.4063 75.5835 28.4063C75.7289 28.5516 75.8016 28.7333 75.8016 28.9514C75.8016 29.3148 75.6017 29.8599 75.202 30.5867C74.8022 31.3135 74.2935 32.0584 73.6757 32.8216C73.0943 33.5847 72.4947 34.2388 71.8769 34.7839C71.2591 35.2927 70.7503 35.5471 70.3506 35.5471C69.6601 35.5471 69.1151 35.2018 68.7153 34.5114C68.3519 33.8209 68.0975 33.0396 67.9522 32.1675C67.8432 31.2953 67.7886 30.623 67.7886 30.1506C67.7886 28.7333 67.8795 27.3342 68.0612 25.9533C68.2429 24.5361 68.4609 23.137 68.7153 21.7561C68.8607 21.0293 69.0424 20.2661 69.2604 19.4667C69.5148 18.6672 69.642 17.9041 69.642 17.1773C69.642 16.9592 69.5693 16.7412 69.4239 16.5231L69.3149 16.4686C69.0969 16.4686 68.8062 16.6867 68.4428 17.1227C68.0794 17.5225 67.7341 17.9586 67.4071 18.431C67.1164 18.9034 66.8983 19.2305 66.753 19.4122C65.372 21.3745 64.2637 23.4095 63.4279 25.5173C62.592 27.5886 61.6472 29.6963 60.5934 31.8404C60.5207 31.9858 60.4117 32.1311 60.2663 32.2765C60.1573 32.4218 60.0119 32.4945 59.8302 32.4945C59.4668 32.4945 59.2124 32.1493 59.0671 31.4588C58.9581 30.732 58.9035 29.9144 58.9035 29.0059C58.9035 28.1701 58.9217 27.3888 58.9581 26.662C59.0307 25.8988 59.0671 25.3719 59.0671 25.0812C59.0671 24.9358 59.0489 24.6269 59.0126 24.1545C59.0126 23.6821 58.9762 23.1733 58.9035 22.6282C58.8672 22.0831 58.7945 21.6107 58.6855 21.211C58.6128 20.8112 58.4856 20.6114 58.3039 20.6114C57.9405 20.6114 57.6498 20.7567 57.4318 21.0475C57.2501 21.3382 57.0684 21.6289 56.8867 21.9196C55.8328 23.7003 54.9788 25.5354 54.3247 27.4251C53.7433 29.1694 53.3254 30.9682 53.071 32.8216C52.8166 34.6386 52.3805 36.401 51.7628 38.109C51.6537 38.5451 51.3812 38.7631 50.9451 38.7631ZM81.3693 16.5776C81.1149 16.5776 80.8787 16.5231 80.6606 16.4141C80.4426 16.2688 80.3336 16.0689 80.3336 15.8145C80.3336 15.5238 80.4608 15.0877 80.7151 14.5063C80.9695 13.8885 81.2966 13.2707 81.6963 12.6529C82.096 12.0352 82.514 11.5082 82.95 11.0722C83.4225 10.6361 83.8404 10.418 84.2038 10.418C84.4945 10.418 84.6398 10.5997 84.6398 10.9631C84.6398 11.3992 84.4036 11.7444 83.9312 11.9988C83.6405 12.1805 83.3861 12.5258 83.1681 13.0345C82.9864 13.5433 82.8228 14.0702 82.6775 14.6153C82.5685 15.1604 82.4594 15.5965 82.3504 15.9235C82.2414 16.3596 81.9143 16.5776 81.3693 16.5776ZM80.2791 37.4549C79.4432 37.4549 78.8255 37.1097 78.4257 36.4192C78.026 35.6924 77.7716 34.8748 77.6626 33.9663C77.5536 33.0214 77.4991 32.2583 77.4991 31.6769C77.4991 31.3135 77.5354 30.6412 77.6081 29.66C77.7171 28.6788 77.8443 27.5886 77.9896 26.3894C78.1713 25.1539 78.3712 23.9546 78.5893 22.7918C78.8436 21.6289 79.1344 20.6659 79.4614 19.9027C79.7885 19.1396 80.1337 18.758 80.4971 18.758C80.7878 18.758 81.0422 18.8489 81.2602 19.0306C81.4783 19.2123 81.5873 19.4485 81.5873 19.7392C81.5873 20.1753 81.4601 20.8658 81.2057 21.8106C80.9513 22.7554 80.6425 23.8275 80.2791 25.0267C79.952 26.2259 79.6431 27.4433 79.3524 28.6788C79.098 29.878 78.9708 30.9682 78.9708 31.9494C78.9708 32.2038 78.989 32.6399 79.0253 33.2576C79.098 33.8754 79.2252 34.4569 79.4069 35.002C79.5886 35.5107 79.8793 35.7651 80.2791 35.7651C80.8242 35.7651 81.4238 35.3654 82.0779 34.5659C82.732 33.7664 83.3861 32.7852 84.0402 31.6224C84.7307 30.4231 85.3666 29.2421 85.9481 28.0792C86.5295 26.88 87.0201 25.8807 87.4198 25.0812C87.8196 24.2817 88.0921 23.882 88.2375 23.882C88.4192 23.882 88.5282 23.9546 88.5645 24.1C88.6372 24.209 88.6736 24.3362 88.6736 24.4816C88.6736 24.954 88.4737 25.7171 88.074 26.771C87.6742 27.7885 87.1473 28.915 86.4932 30.1506C85.8391 31.3498 85.1304 32.5127 84.3673 33.6392C83.6042 34.7294 82.8592 35.6379 82.1324 36.3647C81.4056 37.0915 80.7878 37.4549 80.2791 37.4549ZM91.5366 16.5776C91.2822 16.5776 91.046 16.5231 90.828 16.4141C90.6099 16.2688 90.5009 16.0689 90.5009 15.8145C90.5009 15.5238 90.6281 15.0877 90.8825 14.5063C91.1369 13.8885 91.4639 13.2707 91.8637 12.6529C92.2634 12.0352 92.6813 11.5082 93.1174 11.0722C93.5898 10.6361 94.0077 10.418 94.3711 10.418C94.6618 10.418 94.8072 10.5997 94.8072 10.9631C94.8072 11.3992 94.571 11.7444 94.0986 11.9988C93.8078 12.1805 93.5535 12.5258 93.3354 13.0345C93.1537 13.5433 92.9902 14.0702 92.8448 14.6153C92.7358 15.1604 92.6268 15.5965 92.5178 15.9235C92.4088 16.3596 92.0817 16.5776 91.5366 16.5776ZM90.4464 37.4549C89.6106 37.4549 88.9928 37.1097 88.5931 36.4192C88.1933 35.6924 87.939 34.8748 87.8299 33.9663C87.7209 33.0214 87.6664 32.2583 87.6664 31.6769C87.6664 31.3135 87.7027 30.6412 87.7754 29.66C87.8844 28.6788 88.0116 27.5886 88.157 26.3894C88.3387 25.1539 88.5386 23.9546 88.7566 22.7918C89.011 21.6289 89.3017 20.6659 89.6288 19.9027C89.9558 19.1396 90.301 18.758 90.6644 18.758C90.9552 18.758 91.2095 18.8489 91.4276 19.0306C91.6456 19.2123 91.7546 19.4485 91.7546 19.7392C91.7546 20.1753 91.6275 20.8658 91.3731 21.8106C91.1187 22.7554 90.8098 23.8275 90.4464 25.0267C90.1193 26.2259 89.8105 27.4433 89.5197 28.6788C89.2654 29.878 89.1382 30.9682 89.1382 31.9494C89.1382 32.2038 89.1563 32.6399 89.1927 33.2576C89.2654 33.8754 89.3926 34.4569 89.5742 35.002C89.7559 35.5107 90.0467 35.7651 90.4464 35.7651C90.9915 35.7651 91.5911 35.3654 92.2452 34.5659C92.8993 33.7664 93.5535 32.7852 94.2076 31.6224C94.898 30.4231 95.534 29.2421 96.1154 28.0792C96.6969 26.88 97.1875 25.8807 97.5872 25.0812C97.9869 24.2817 98.2595 23.882 98.4048 23.882C98.5865 23.882 98.6956 23.9546 98.7319 24.1C98.8046 24.209 98.8409 24.3362 98.8409 24.4816C98.8409 24.954 98.641 25.7171 98.2413 26.771C97.8416 27.7885 97.3146 28.915 96.6605 30.1506C96.0064 31.3498 95.2978 32.5127 94.5346 33.6392C93.7715 34.7294 93.0265 35.6379 92.2997 36.3647C91.5729 37.0915 90.9552 37.4549 90.4464 37.4549ZM98.7059 39.5263C98.0881 39.5263 97.6339 39.2174 97.3432 38.5996C97.0525 38.0182 96.8708 37.3459 96.7981 36.5827C96.7254 35.8196 96.6891 35.2382 96.6891 34.8384C96.6891 33.4575 96.8162 32.0039 97.0706 30.4776C97.325 28.915 97.6521 27.4614 98.0518 26.1169C98.2335 25.4991 98.5606 24.6088 99.033 23.4459C99.5054 22.2467 100.069 21.0293 100.723 19.7937C101.413 18.5582 102.14 17.5225 102.903 16.6867C103.703 15.8145 104.502 15.3784 105.302 15.3784C105.919 15.3784 106.592 15.651 107.318 16.1961C108.045 16.7412 108.409 17.3408 108.409 17.9949C108.409 18.2493 108.318 18.4673 108.136 18.649C108.172 18.6127 108.263 18.5945 108.409 18.5945C109.099 18.5945 109.444 18.9579 109.444 19.6847C109.444 20.5205 109.317 21.5199 109.063 22.6827C108.845 23.8456 108.609 25.0812 108.354 26.3894C108.1 27.6613 107.973 28.8969 107.973 30.0961C107.973 30.5322 108.009 31.0591 108.082 31.6769C108.154 32.2583 108.318 32.7852 108.572 33.2576C108.863 33.7301 109.317 33.9663 109.935 33.9663C110.516 33.9663 111.134 33.6574 111.788 33.0396C112.442 32.4218 113.078 31.6587 113.696 30.7502C114.314 29.8417 114.895 28.9332 115.44 28.0247C115.986 27.1162 116.44 26.3531 116.803 25.7353C117.203 25.1175 117.475 24.8086 117.621 24.8086C117.875 24.8086 118.002 24.9722 118.002 25.2992C118.002 25.7353 117.803 26.3712 117.403 27.2071C117.039 28.0065 116.549 28.8969 115.931 29.878C115.313 30.8229 114.623 31.7495 113.86 32.658C113.133 33.5302 112.388 34.257 111.625 34.8384C110.898 35.3835 110.244 35.6561 109.662 35.6561C108.718 35.6561 107.991 35.2745 107.482 34.5114C107.01 33.7119 106.683 32.7671 106.501 31.6769C106.355 30.5867 106.283 29.5692 106.283 28.6243C106.283 28.2973 106.283 27.9884 106.283 27.6976C106.283 27.4069 106.301 27.1525 106.337 26.9345C106.119 27.4433 105.81 28.2064 105.411 29.2239C105.011 30.2051 104.538 31.2953 103.993 32.4945C103.485 33.6574 102.921 34.7839 102.304 35.8741C101.722 36.928 101.123 37.8001 100.505 38.4906C99.887 39.181 99.2874 39.5263 98.7059 39.5263ZM99.142 37.2369C99.6144 37.2369 100.141 36.8008 100.723 35.9286C101.304 35.0565 101.904 33.9481 102.522 32.6035C103.176 31.2226 103.794 29.7508 104.375 28.1882C104.956 26.6256 105.483 25.1539 105.956 23.7729C106.464 22.3557 106.882 21.1928 107.209 20.2843C107.537 19.3395 107.755 18.8307 107.864 18.758L107.537 18.8125C107.282 18.8125 107.082 18.6854 106.937 18.431C106.792 18.1403 106.61 17.8677 106.392 17.6133C106.174 17.359 105.81 17.2318 105.302 17.2318C104.647 17.2318 104.012 17.6133 103.394 18.3765C102.776 19.1396 102.176 20.0663 101.595 21.1565C101.05 22.2103 100.577 23.246 100.178 24.2635C99.8143 25.281 99.5599 26.0442 99.4145 26.5529C98.6878 29.0604 98.3244 31.6405 98.3244 34.2933C98.3244 34.4387 98.3244 34.7658 98.3244 35.2745C98.3607 35.7469 98.4334 36.2012 98.5424 36.6373C98.6878 37.037 98.8876 37.2369 99.142 37.2369ZM117.671 39.9624C117.453 39.9624 117.198 39.8715 116.908 39.6898C116.617 39.5081 116.471 39.2901 116.471 39.0357C116.471 38.745 116.58 38.3452 116.798 37.8365C117.053 37.2914 117.362 36.7281 117.725 36.1467C118.125 35.5289 118.506 35.0201 118.87 34.6204C119.27 34.2207 119.633 34.0208 119.96 34.0208C120.142 34.0208 120.251 34.0935 120.287 34.2388C120.36 34.3478 120.396 34.475 120.396 34.6204C120.396 34.8021 120.323 35.0383 120.178 35.329C119.815 35.9831 119.506 36.6191 119.251 37.2369C118.997 37.8546 118.761 38.5269 118.543 39.2537C118.434 39.7261 118.143 39.9624 117.671 39.9624ZM127.647 39.9078C127.465 39.9078 127.102 39.8897 126.557 39.8533C126.011 39.817 125.43 39.7443 124.812 39.6353C124.231 39.5626 123.722 39.4536 123.286 39.3082C122.85 39.1629 122.632 38.963 122.632 38.7086C122.632 38.5269 122.723 38.3816 122.904 38.2725C123.122 38.1999 123.304 38.1635 123.45 38.1635C124.176 38.1635 124.903 38.2725 125.63 38.4906C126.357 38.7086 127.12 38.8176 127.919 38.8176C130.427 38.8176 132.952 38.3452 135.496 37.4004C138.04 36.4192 140.438 35.0746 142.691 33.3667C144.981 31.6587 146.998 29.7145 148.742 27.5341C150.523 25.3174 151.922 22.9735 152.939 20.5024C153.957 17.9949 154.466 15.4693 154.466 12.9255C154.466 10.1273 153.848 7.92876 152.612 6.3298C151.377 4.73085 149.723 3.58615 147.652 2.89569C145.617 2.20523 143.346 1.86 140.838 1.86C139.748 1.86 138.422 1.96902 136.859 2.18706C135.333 2.4051 133.734 2.75033 132.062 3.22275C130.427 3.69517 128.882 4.31294 127.429 5.07608C125.975 5.83922 124.794 6.76588 123.886 7.85608C123.013 8.90993 122.577 10.1637 122.577 11.6173C122.577 12.4531 122.795 13.0709 123.231 13.4706C123.704 13.8703 124.304 14.161 125.03 14.3427C125.103 14.3791 125.23 14.4154 125.412 14.4518C125.594 14.4518 125.684 14.5244 125.684 14.6698C125.466 14.9605 125.103 15.1059 124.594 15.1059C123.468 15.1059 122.632 14.7788 122.087 14.1247C121.505 13.4342 121.215 12.5439 121.215 11.4537C121.215 9.78209 121.687 8.31033 122.632 7.03843C123.613 5.76654 124.867 4.71268 126.393 3.87686C127.956 3.00471 129.627 2.29608 131.408 1.75098C133.225 1.20588 135.006 0.824315 136.75 0.606275C138.494 0.351897 140.002 0.224708 141.274 0.224708C144.218 0.224708 146.834 0.588106 149.124 1.3149C151.449 2.00536 153.285 3.24092 154.629 5.02157C155.974 6.80222 156.646 9.34601 156.646 12.6529C156.646 15.4148 156.083 18.1403 154.956 20.8294C153.83 23.4822 152.285 25.9533 150.323 28.2427C148.361 30.5322 146.126 32.5672 143.618 34.3478C141.147 36.0922 138.531 37.4549 135.769 38.4361C133.043 39.4173 130.336 39.9078 127.647 39.9078ZM134.242 34.7294C133.116 34.7294 132.244 34.4569 131.626 33.9118C131.045 33.3667 130.627 32.658 130.372 31.7859C130.154 30.9137 130.045 30.0234 130.045 29.1149C130.045 27.4069 130.209 25.4264 130.536 23.1733C130.863 20.8839 131.353 18.5582 132.008 16.1961C132.662 13.7976 133.443 11.5627 134.351 9.49137C135.296 7.42 136.368 5.7302 137.568 4.42196C137.822 4.16758 138.131 4.04039 138.494 4.04039C138.749 4.04039 139.003 4.0949 139.257 4.20392C139.548 4.31294 139.712 4.51281 139.748 4.80353L139.584 5.13059C139.257 5.78471 138.858 6.40248 138.385 6.98392C137.913 7.52902 137.495 8.12863 137.131 8.78275C135.424 11.6899 134.043 14.8697 132.989 18.322C131.935 21.7379 131.408 25.1357 131.408 28.5153C131.408 29.5328 131.499 30.5503 131.681 31.5678C131.899 32.5854 132.571 33.294 133.697 33.6937C133.879 33.7301 134.061 33.8027 134.242 33.9118C134.461 34.0208 134.57 34.1843 134.57 34.4024C134.57 34.6204 134.461 34.7294 134.242 34.7294ZM162.005 38C161.023 38 160.26 37.5639 159.715 36.6918C159.206 35.8196 158.861 34.7658 158.679 33.5302C158.498 32.2583 158.407 31.0773 158.407 29.9871C158.407 29.4783 158.407 29.0241 158.407 28.6243C158.443 28.1882 158.48 27.8248 158.516 27.5341H158.352C157.916 27.5341 157.698 27.3706 157.698 27.0435C157.771 26.8618 157.898 26.7165 158.08 26.6075C158.298 26.4621 158.498 26.3712 158.679 26.3349C158.861 24.7359 159.206 23.1007 159.715 21.429C160.224 19.7574 160.914 18.2493 161.787 16.9047V16.5776C161.787 16.2142 162.005 15.9962 162.441 15.9235C162.622 15.7418 162.804 15.542 162.986 15.3239C163.204 15.0695 163.44 14.9424 163.694 14.9424C163.985 14.9424 164.203 15.0695 164.349 15.3239C164.53 15.542 164.548 15.7782 164.403 16.0325C165.093 16.1779 165.711 16.4686 166.256 16.9047C166.838 17.3044 167.129 17.9041 167.129 18.7035C167.129 19.7574 166.729 20.8476 165.929 21.9741C165.166 23.0643 164.239 24.0637 163.149 24.9722C162.095 25.8443 161.132 26.4984 160.26 26.9345C160.151 27.8067 160.079 28.697 160.042 29.6055C160.042 30.4776 160.042 31.3498 160.042 32.222C160.042 32.658 160.06 33.2031 160.097 33.8573C160.169 34.5114 160.333 35.0928 160.587 35.6016C160.878 36.1103 161.35 36.3647 162.005 36.3647C162.695 36.3647 163.367 36.0558 164.021 35.438C164.712 34.8203 165.366 34.039 165.984 33.0941C166.638 32.1129 167.238 31.0954 167.783 30.0416C168.328 28.9877 168.8 27.9884 169.2 27.0435C169.6 26.0987 169.89 25.3719 170.072 24.8631C170.145 24.6814 170.236 24.5179 170.345 24.3726C170.454 24.1908 170.617 24.1 170.835 24.1C171.126 24.1 171.271 24.2817 171.271 24.6451C171.271 25.2265 171.071 26.0624 170.672 27.1525C170.272 28.2064 169.727 29.3511 169.036 30.5867C168.382 31.8222 167.637 33.0033 166.801 34.1298C166.002 35.2563 165.184 36.183 164.349 36.9098C163.513 37.6366 162.731 38 162.005 38ZM160.533 25.2447C161.223 24.8086 161.914 24.2635 162.604 23.6094C163.295 22.9553 163.876 22.2103 164.349 21.3745C164.821 20.5387 165.057 19.7029 165.057 18.8671C165.057 18.431 164.839 18.1221 164.403 17.9404C163.967 17.7224 163.585 17.5952 163.258 17.5588C162.568 18.6854 161.986 19.9209 161.514 21.2655C161.078 22.6101 160.751 23.9365 160.533 25.2447ZM172.504 38.1635C171.85 38.1635 171.522 37.8365 171.522 37.1824C171.522 36.5646 171.741 35.8741 172.177 35.111C172.649 34.3115 173.212 33.512 173.866 32.7125C174.521 31.8767 175.175 31.1136 175.829 30.4231C176.519 29.7327 177.082 29.1694 177.519 28.7333C177.01 28.479 176.374 28.2609 175.611 28.0792C174.884 27.8612 174.139 27.625 173.376 27.3706C172.649 27.0799 172.031 26.7165 171.522 26.2804C171.05 25.808 170.814 25.1902 170.814 24.4271C170.814 23.6276 171.105 22.7191 171.686 21.7016C172.304 20.6841 173.085 19.7029 174.03 18.758C174.975 17.7769 175.938 16.9774 176.919 16.3596C177.9 15.7055 178.772 15.3784 179.535 15.3784C180.008 15.3784 180.462 15.5056 180.898 15.76C181.371 15.978 181.607 16.3596 181.607 16.9047C181.607 17.0501 181.57 17.2499 181.498 17.5043C181.425 17.7587 181.298 17.8859 181.116 17.8859C180.862 17.8859 180.644 17.7587 180.462 17.5043C180.317 17.2136 180.135 17.0682 179.917 17.0682C179.299 17.0682 178.554 17.3226 177.682 17.8314C176.846 18.3401 176.029 18.9942 175.229 19.7937C174.43 20.5569 173.757 21.3563 173.212 22.1922C172.704 23.028 172.449 23.7729 172.449 24.4271C172.449 24.8631 172.704 25.2447 173.212 25.5718C173.721 25.8988 174.321 26.1714 175.011 26.3894C175.738 26.6075 176.447 26.8255 177.137 27.0435C177.827 27.2252 178.336 27.4251 178.663 27.6431C178.845 27.4614 179.154 27.1707 179.59 26.771C180.026 26.3712 180.517 25.9352 181.062 25.4627C181.607 24.9903 182.097 24.5906 182.533 24.2635C183.006 23.9365 183.333 23.7729 183.515 23.7729C183.66 23.7729 183.733 23.8456 183.733 23.991C183.733 24.1727 183.551 24.4816 183.188 24.9176C182.861 25.3174 182.443 25.7535 181.934 26.2259C181.461 26.6983 181.007 27.1525 180.571 27.5886C180.135 27.9884 179.826 28.2791 179.644 28.4608C179.972 29.0059 180.135 29.5873 180.135 30.2051C180.135 30.8229 179.862 31.586 179.317 32.4945C178.772 33.3667 178.082 34.2388 177.246 35.111C176.447 35.9831 175.611 36.7099 174.739 37.2914C173.866 37.8728 173.121 38.1635 172.504 38.1635ZM174.575 35.3835C174.902 35.3835 175.284 35.2018 175.72 34.8384C176.192 34.475 176.646 34.0208 177.082 33.4757C177.519 32.9306 177.882 32.4037 178.173 31.8949C178.5 31.3498 178.663 30.9137 178.663 30.5867C178.663 30.2233 178.591 29.9507 178.445 29.769C178.227 29.9871 177.882 30.3323 177.41 30.8047C176.973 31.2771 176.501 31.8041 175.992 32.3855C175.52 32.9306 175.102 33.4575 174.739 33.9663C174.412 34.4387 174.248 34.8021 174.248 35.0565C174.248 35.2745 174.357 35.3835 174.575 35.3835ZM188.153 16.5776C187.899 16.5776 187.663 16.5231 187.444 16.4141C187.226 16.2688 187.117 16.0689 187.117 15.8145C187.117 15.5238 187.245 15.0877 187.499 14.5063C187.753 13.8885 188.08 13.2707 188.48 12.6529C188.88 12.0352 189.298 11.5082 189.734 11.0722C190.206 10.6361 190.624 10.418 190.988 10.418C191.278 10.418 191.424 10.5997 191.424 10.9631C191.424 11.3992 191.187 11.7444 190.715 11.9988C190.424 12.1805 190.17 12.5258 189.952 13.0345C189.77 13.5433 189.607 14.0702 189.461 14.6153C189.352 15.1604 189.243 15.5965 189.134 15.9235C189.025 16.3596 188.698 16.5776 188.153 16.5776ZM187.063 37.4549C186.227 37.4549 185.609 37.1097 185.21 36.4192C184.81 35.6924 184.555 34.8748 184.446 33.9663C184.337 33.0214 184.283 32.2583 184.283 31.6769C184.283 31.3135 184.319 30.6412 184.392 29.66C184.501 28.6788 184.628 27.5886 184.773 26.3894C184.955 25.1539 185.155 23.9546 185.373 22.7918C185.627 21.6289 185.918 20.6659 186.245 19.9027C186.572 19.1396 186.918 18.758 187.281 18.758C187.572 18.758 187.826 18.8489 188.044 19.0306C188.262 19.2123 188.371 19.4485 188.371 19.7392C188.371 20.1753 188.244 20.8658 187.99 21.8106C187.735 22.7554 187.426 23.8275 187.063 25.0267C186.736 26.2259 186.427 27.4433 186.136 28.6788C185.882 29.878 185.755 30.9682 185.755 31.9494C185.755 32.2038 185.773 32.6399 185.809 33.2576C185.882 33.8754 186.009 34.4569 186.191 35.002C186.372 35.5107 186.663 35.7651 187.063 35.7651C187.608 35.7651 188.208 35.3654 188.862 34.5659C189.516 33.7664 190.17 32.7852 190.824 31.6224C191.515 30.4231 192.15 29.2421 192.732 28.0792C193.313 26.88 193.804 25.8807 194.204 25.0812C194.603 24.2817 194.876 23.882 195.021 23.882C195.203 23.882 195.312 23.9546 195.348 24.1C195.421 24.209 195.457 24.3362 195.457 24.4816C195.457 24.954 195.258 25.7171 194.858 26.771C194.458 27.7885 193.931 28.915 193.277 30.1506C192.623 31.3498 191.914 32.5127 191.151 33.6392C190.388 34.7294 189.643 35.6379 188.916 36.3647C188.189 37.0915 187.572 37.4549 187.063 37.4549ZM195.116 58.5502C194.316 58.5502 193.717 58.314 193.317 57.8416C192.954 57.4055 192.699 56.8604 192.554 56.2063C192.445 55.5522 192.39 54.9162 192.39 54.2984C192.39 52.9175 192.608 51.3731 193.044 49.6651C193.481 47.9571 194.08 46.2128 194.843 44.4322C195.643 42.6515 196.551 40.9617 197.569 39.3627C198.623 37.7638 199.749 36.3465 200.948 35.111C202.148 33.8754 203.383 32.9669 204.655 32.3855L204.71 30.2596C204.71 29.8599 204.691 29.1876 204.655 28.2427C204.655 27.2616 204.619 26.2077 204.546 25.0812C204.473 23.9546 204.383 22.9553 204.274 22.0831C204.164 21.211 204.055 20.6841 203.946 20.5024C203.619 21.0111 203.22 21.9014 202.747 23.1733C202.275 24.4452 201.748 25.8625 201.166 27.4251C200.585 28.9514 199.967 30.4413 199.313 31.8949C198.695 33.3485 198.041 34.5477 197.351 35.4925C196.697 36.4374 196.043 36.9098 195.388 36.9098C194.625 36.9098 194.044 36.6736 193.644 36.2012C193.281 35.7288 193.026 35.1655 192.881 34.5114C192.772 33.8209 192.717 33.185 192.717 32.6035C192.717 31.9131 192.881 30.8774 193.208 29.4965C193.535 28.1156 193.971 26.6256 194.516 25.0267C195.098 23.3914 195.752 21.8469 196.479 20.3933C197.242 18.9034 198.041 17.686 198.877 16.7412C199.713 15.7963 200.567 15.3239 201.439 15.3239C201.948 15.3239 202.366 15.5056 202.693 15.869C203.056 16.2324 203.329 16.6322 203.51 17.0682C203.583 16.9592 203.71 16.9047 203.892 16.9047C204.437 16.9047 204.873 17.3771 205.2 18.322C205.527 19.2668 205.763 20.4478 205.909 21.8651C206.091 23.246 206.218 24.6814 206.29 26.1714C206.363 27.6613 206.399 28.9514 206.399 30.0416C206.399 30.4776 206.381 30.8774 206.345 31.2408C206.345 31.5678 206.345 31.8222 206.345 32.0039H206.508C206.763 32.0039 206.999 32.0766 207.217 32.222C207.471 32.3673 207.599 32.5854 207.599 32.8761C207.599 33.4212 207.308 33.6937 206.726 33.6937C206.508 33.6937 206.345 33.6756 206.236 33.6392C205.909 36.7281 205.4 39.817 204.71 42.9059C204.055 46.0311 203.038 49.011 201.657 51.8455C201.439 52.3179 201.076 52.9175 200.567 53.6443C200.094 54.4075 199.549 55.1524 198.932 55.8792C198.314 56.6424 197.66 57.2783 196.969 57.7871C196.315 58.2958 195.697 58.5502 195.116 58.5502ZM195.388 35.111C195.861 35.111 196.37 34.6749 196.915 33.8027C197.496 32.8942 198.078 31.7677 198.659 30.4231C199.24 29.0786 199.786 27.6795 200.294 26.2259C200.803 24.7359 201.239 23.4095 201.603 22.2467C202.002 21.0475 202.275 20.2116 202.42 19.7392C202.348 19.5939 202.293 19.4667 202.257 19.3576C202.257 19.2486 202.257 19.1396 202.257 19.0306C202.257 18.8852 202.257 18.6672 202.257 18.3765C202.257 18.0494 202.202 17.7587 202.093 17.5043C201.984 17.2136 201.766 17.0682 201.439 17.0682C200.785 17.0682 200.113 17.5225 199.422 18.431C198.768 19.3395 198.132 20.4842 197.514 21.8651C196.933 23.246 196.406 24.6996 195.934 26.2259C195.497 27.7158 195.134 29.0786 194.843 30.3141C194.589 31.5497 194.462 32.44 194.462 32.9851C194.462 33.3122 194.498 33.7482 194.571 34.2933C194.643 34.8384 194.916 35.111 195.388 35.111ZM195.116 56.9149C195.552 56.9149 196.024 56.6787 196.533 56.2063C197.078 55.7702 197.587 55.2069 198.059 54.5165C198.568 53.8624 199.004 53.2082 199.368 52.5541C199.767 51.9363 200.058 51.4458 200.24 51.0824C201.584 48.4659 202.584 45.7041 203.238 42.7969C203.892 39.926 204.346 37.037 204.601 34.1298C203.583 34.6749 202.566 35.5471 201.548 36.7463C200.567 37.9092 199.622 39.2537 198.714 40.78C197.805 42.3063 196.987 43.8871 196.261 45.5224C195.57 47.194 195.025 48.7748 194.625 50.2647C194.226 51.791 194.026 53.1174 194.026 54.2439C194.026 54.462 194.044 54.7708 194.08 55.1706C194.117 55.6067 194.207 56.0064 194.353 56.3698C194.534 56.7332 194.789 56.9149 195.116 56.9149ZM211.609 38.218C211.355 38.218 211.155 38.1272 211.009 37.9455C210.9 37.7275 210.846 37.4912 210.846 37.2369C210.846 35.2018 210.955 33.1668 211.173 31.1318C211.427 29.0604 211.554 27.0072 211.554 24.9722C211.554 24.7541 211.536 24.3362 211.5 23.7184C211.5 23.0643 211.464 22.3739 211.391 21.6471C211.355 20.8839 211.282 20.2116 211.173 19.6302C211.1 19.0124 210.991 18.6309 210.846 18.4855C210.7 18.3765 210.555 18.2493 210.41 18.1039C210.301 17.9586 210.246 17.7769 210.246 17.5588C210.246 17.3408 210.337 17.1773 210.519 17.0682C210.737 16.9229 210.955 16.8502 211.173 16.8502C211.791 16.8502 212.227 17.1409 212.481 17.7224C212.772 18.2675 212.953 18.9397 213.026 19.7392C213.135 20.5387 213.19 21.3018 213.19 22.0286C213.19 25.4446 213.081 28.8787 212.863 32.331C213.008 31.9312 213.299 31.2226 213.735 30.2051C214.171 29.1876 214.698 28.0429 215.316 26.771C215.933 25.4991 216.569 24.2817 217.223 23.1188C217.914 21.9196 218.55 20.9384 219.131 20.1753C219.713 19.3758 220.185 18.9761 220.549 18.9761C221.057 18.9761 221.421 19.3031 221.639 19.9573C221.893 20.575 222.02 21.0838 222.02 21.4835C222.02 23.1552 221.929 24.8268 221.748 26.4984C221.602 28.1701 221.53 29.8599 221.53 31.5678C221.53 31.7859 221.548 32.2038 221.584 32.8216C221.657 33.403 221.766 33.9663 221.911 34.5114C222.093 35.0201 222.366 35.2745 222.729 35.2745C223.02 35.2745 223.401 34.9475 223.874 34.2933C224.346 33.6392 224.837 32.8761 225.345 32.0039C225.854 31.0954 226.308 30.2414 226.708 29.442C227.108 28.6425 227.38 28.0792 227.526 27.7522C227.562 27.6795 227.598 27.6068 227.635 27.5341C227.671 27.4251 227.726 27.3706 227.798 27.3706C227.98 27.3706 228.089 27.5159 228.125 27.8067C228.162 28.061 228.18 28.2246 228.18 28.2973C228.18 28.6607 227.98 29.2966 227.58 30.2051C227.181 31.1136 226.672 32.0766 226.054 33.0941C225.473 34.1116 224.855 34.9838 224.201 35.7106C223.583 36.4374 223.02 36.8008 222.511 36.8008C221.784 36.8008 221.239 36.5101 220.876 35.9286C220.549 35.3472 220.33 34.6931 220.221 33.9663C220.112 33.2031 220.058 32.5672 220.058 32.0584C220.058 30.8592 220.112 29.66 220.221 28.4608C220.367 27.2616 220.44 26.0624 220.44 24.8631C220.44 24.7541 220.421 24.4816 220.385 24.0455C220.385 23.6094 220.367 23.1915 220.33 22.7918C220.294 22.392 220.203 22.1922 220.058 22.1922C219.695 22.1922 219.222 22.6464 218.641 23.5549C218.096 24.4634 217.496 25.6081 216.842 26.989C216.224 28.3699 215.606 29.8054 214.989 31.2953C214.371 32.7489 213.826 34.0571 213.353 35.22C212.917 36.3829 212.608 37.1642 212.427 37.5639C212.354 37.7093 212.245 37.8546 212.1 38C211.99 38.1454 211.827 38.218 211.609 38.218Z" fill="black"/>
</svg>
