<svg width="209" height="54" viewBox="0 0 209 54" fill="none" xmlns="http://www.w3.org/2000/svg">
<path d="M5.9 36.75C5.73333 36.75 5.4 36.7333 4.9 36.7C4.4 36.6667 3.86667 36.6 3.3 36.5C2.76667 36.4333 2.3 36.3333 1.9 36.2C1.5 36.0667 1.3 35.8833 1.3 35.65C1.3 35.4833 1.38333 35.35 1.55 35.25C1.75 35.1833 1.91667 35.15 2.05 35.15C2.71667 35.15 3.38333 35.25 4.05 35.45C4.71667 35.65 5.41667 35.75 6.15 35.75C8.45 35.75 10.7667 35.3167 13.1 34.45C15.4333 33.55 17.6333 32.3167 19.7 30.75C21.8 29.1833 23.65 27.4 25.25 25.4C26.8833 23.3667 28.1667 21.2167 29.1 18.95C30.0333 16.65 30.5 14.3333 30.5 12C30.5 9.43333 29.9333 7.41667 28.8 5.95C27.6667 4.48333 26.15 3.43333 24.25 2.8C22.3833 2.16666 20.3 1.85 18 1.85C17 1.85 15.7833 1.95 14.35 2.15C12.95 2.35 11.4833 2.66667 9.95 3.1C8.45 3.53333 7.03333 4.1 5.7 4.8C4.36667 5.5 3.28333 6.35 2.45 7.35C1.65 8.31666 1.25 9.46666 1.25 10.8C1.25 11.5667 1.45 12.1333 1.85 12.5C2.28333 12.8667 2.83333 13.1333 3.5 13.3C3.56667 13.3333 3.68333 13.3667 3.85 13.4C4.01667 13.4 4.1 13.4667 4.1 13.6C3.9 13.8667 3.56667 14 3.1 14C2.06667 14 1.3 13.7 0.8 13.1C0.266667 12.4667 -7.07805e-08 11.65 -7.07805e-08 10.65C-7.07805e-08 9.11666 0.433333 7.76666 1.3 6.6C2.2 5.43333 3.35 4.46666 4.75 3.7C6.18333 2.9 7.71667 2.25 9.35 1.75C11.0167 1.25 12.65 0.899999 14.25 0.699998C15.85 0.466665 17.2333 0.349999 18.4 0.349999C21.1 0.349999 23.5 0.683332 25.6 1.35C27.7333 1.98333 29.4167 3.11666 30.65 4.75C31.8833 6.38333 32.5 8.71666 32.5 11.75C32.5 14.2833 31.9833 16.7833 30.95 19.25C29.9167 21.6833 28.5 23.95 26.7 26.05C24.9 28.15 22.85 30.0167 20.55 31.65C18.2833 33.25 15.8833 34.5 13.35 35.4C10.85 36.3 8.36667 36.75 5.9 36.75ZM11.95 32C10.9167 32 10.1167 31.75 9.55 31.25C9.01667 30.75 8.63333 30.1 8.4 29.3C8.2 28.5 8.1 27.6833 8.1 26.85C8.1 25.2833 8.25 23.4667 8.55 21.4C8.85 19.3 9.3 17.1667 9.9 15C10.5 12.8 11.2167 10.75 12.05 8.85C12.9167 6.95 13.9 5.4 15 4.2C15.2333 3.96666 15.5167 3.85 15.85 3.85C16.0833 3.85 16.3167 3.9 16.55 4C16.8167 4.1 16.9667 4.28333 17 4.55L16.85 4.85C16.55 5.45 16.1833 6.01667 15.75 6.55C15.3167 7.05 14.9333 7.6 14.6 8.2C13.0333 10.8667 11.7667 13.7833 10.8 16.95C9.83333 20.0833 9.35 23.2 9.35 26.3C9.35 27.2333 9.43333 28.1667 9.6 29.1C9.8 30.0333 10.4167 30.6833 11.45 31.05C11.6167 31.0833 11.7833 31.15 11.95 31.25C12.15 31.35 12.25 31.5 12.25 31.7C12.25 31.9 12.15 32 11.95 32ZM37.4152 35C36.5152 35 35.8152 34.6 35.3152 33.8C34.8486 33 34.5319 32.0333 34.3652 30.9C34.1986 29.7333 34.1152 28.65 34.1152 27.65C34.1152 27.1833 34.1152 26.7667 34.1152 26.4C34.1486 26 34.1819 25.6667 34.2152 25.4H34.0652C33.6652 25.4 33.4652 25.25 33.4652 24.95C33.5319 24.7833 33.6486 24.65 33.8152 24.55C34.0152 24.4167 34.1986 24.3333 34.3652 24.3C34.5319 22.8333 34.8486 21.3333 35.3152 19.8C35.7819 18.2667 36.4152 16.8833 37.2152 15.65V15.35C37.2152 15.0167 37.4152 14.8167 37.8152 14.75C37.9819 14.5833 38.1486 14.4 38.3152 14.2C38.5152 13.9667 38.7319 13.85 38.9652 13.85C39.2319 13.85 39.4319 13.9667 39.5652 14.2C39.7319 14.4 39.7486 14.6167 39.6152 14.85C40.2486 14.9833 40.8152 15.25 41.3152 15.65C41.8486 16.0167 42.1152 16.5667 42.1152 17.3C42.1152 18.2667 41.7486 19.2667 41.0152 20.3C40.3152 21.3 39.4652 22.2167 38.4652 23.05C37.4986 23.85 36.6152 24.45 35.8152 24.85C35.7152 25.65 35.6486 26.4667 35.6152 27.3C35.6152 28.1 35.6152 28.9 35.6152 29.7C35.6152 30.1 35.6319 30.6 35.6652 31.2C35.7319 31.8 35.8819 32.3333 36.1152 32.8C36.3819 33.2667 36.8152 33.5 37.4152 33.5C38.0486 33.5 38.6652 33.2167 39.2652 32.65C39.8986 32.0833 40.4986 31.3667 41.0652 30.5C41.6652 29.6 42.2152 28.6667 42.7152 27.7C43.2152 26.7333 43.6486 25.8167 44.0152 24.95C44.3819 24.0833 44.6486 23.4167 44.8152 22.95C44.8819 22.7833 44.9652 22.6333 45.0652 22.5C45.1652 22.3333 45.3152 22.25 45.5152 22.25C45.7819 22.25 45.9152 22.4167 45.9152 22.75C45.9152 23.2833 45.7319 24.05 45.3652 25.05C44.9986 26.0167 44.4986 27.0667 43.8652 28.2C43.2652 29.3333 42.5819 30.4167 41.8152 31.45C41.0819 32.4833 40.3319 33.3333 39.5652 34C38.7986 34.6667 38.0819 35 37.4152 35ZM36.0652 23.3C36.6986 22.9 37.3319 22.4 37.9652 21.8C38.5986 21.2 39.1319 20.5167 39.5652 19.75C39.9986 18.9833 40.2152 18.2167 40.2152 17.45C40.2152 17.05 40.0152 16.7667 39.6152 16.6C39.2152 16.4 38.8652 16.2833 38.5652 16.25C37.9319 17.2833 37.3986 18.4167 36.9652 19.65C36.5652 20.8833 36.2652 22.1 36.0652 23.3ZM45.8957 35.7C45.5957 35.7 45.3957 35.6 45.2957 35.4C45.1957 35.2 45.1457 34.9833 45.1457 34.75V34.65C45.1457 32.85 45.279 31.1667 45.5457 29.6C45.8124 28.0333 46.0624 26.45 46.2957 24.85C46.5624 23.2167 46.6957 21.4333 46.6957 19.5C46.6957 18.9667 46.6624 18.35 46.5957 17.65C46.5624 16.9167 46.4457 16.2 46.2457 15.5C46.079 14.8 45.8124 14.25 45.4457 13.85C45.3124 13.7167 45.2457 13.55 45.2457 13.35C45.2457 13.05 45.379 12.7833 45.6457 12.55C45.9124 12.3167 46.1957 12.1833 46.4957 12.15L46.9457 12.35C47.3457 12.7167 47.629 13.3667 47.7957 14.3C47.9624 15.2 48.0624 16.1167 48.0957 17.05C48.129 17.9833 48.1457 18.7167 48.1457 19.25C48.1457 19.9833 48.129 20.7167 48.0957 21.45C48.0624 22.1833 48.0124 22.9333 47.9457 23.7C48.1124 23.2667 48.3457 22.7167 48.6457 22.05C48.9457 21.35 49.2957 20.6667 49.6957 20C50.129 19.3 50.579 18.7167 51.0457 18.25C51.5457 17.7833 52.079 17.55 52.6457 17.55C53.2124 17.55 53.6457 17.8667 53.9457 18.5C54.2457 19.1 54.4457 19.85 54.5457 20.75C54.679 21.65 54.7624 22.5167 54.7957 23.35C54.829 24.15 54.8457 24.75 54.8457 25.15C55.0457 24.65 55.3624 23.9333 55.7957 23C56.2624 22.0667 56.7957 21.05 57.3957 19.95C58.029 18.85 58.6957 17.8 59.3957 16.8C60.0957 15.8 60.779 14.9833 61.4457 14.35C62.1124 13.6833 62.729 13.35 63.2957 13.35C63.7624 13.35 64.0457 13.6 64.1457 14.1C64.279 14.6 64.3457 15.0167 64.3457 15.35C64.3457 16.6833 64.2124 18.0333 63.9457 19.4C63.7124 20.7667 63.4624 22.15 63.1957 23.55C62.9624 24.95 62.8457 26.3667 62.8457 27.8C62.8457 27.9667 62.8457 28.3333 62.8457 28.9C62.879 29.4667 62.9457 30 63.0457 30.5C63.179 30.9667 63.3957 31.2 63.6957 31.2C64.1957 31.2 64.7124 30.95 65.2457 30.45C65.779 29.95 66.2624 29.3833 66.6957 28.75C67.1624 28.0833 67.5457 27.5 67.8457 27C68.179 26.4667 68.3957 26.2 68.4957 26.2C68.629 26.3333 68.6957 26.5 68.6957 26.7C68.6957 27.0333 68.5124 27.5333 68.1457 28.2C67.779 28.8667 67.3124 29.55 66.7457 30.25C66.2124 30.95 65.6624 31.55 65.0957 32.05C64.529 32.5167 64.0624 32.75 63.6957 32.75C63.0624 32.75 62.5624 32.4333 62.1957 31.8C61.8624 31.1667 61.629 30.45 61.4957 29.65C61.3957 28.85 61.3457 28.2333 61.3457 27.8C61.3457 26.5 61.429 25.2167 61.5957 23.95C61.7624 22.65 61.9624 21.3667 62.1957 20.1C62.329 19.4333 62.4957 18.7333 62.6957 18C62.929 17.2667 63.0457 16.5667 63.0457 15.9C63.0457 15.7 62.979 15.5 62.8457 15.3L62.7457 15.25C62.5457 15.25 62.279 15.45 61.9457 15.85C61.6124 16.2167 61.2957 16.6167 60.9957 17.05C60.729 17.4833 60.529 17.7833 60.3957 17.95C59.129 19.75 58.1124 21.6167 57.3457 23.55C56.579 25.45 55.7124 27.3833 54.7457 29.35C54.679 29.4833 54.579 29.6167 54.4457 29.75C54.3457 29.8833 54.2124 29.95 54.0457 29.95C53.7124 29.95 53.479 29.6333 53.3457 29C53.2457 28.3333 53.1957 27.5833 53.1957 26.75C53.1957 25.9833 53.2124 25.2667 53.2457 24.6C53.3124 23.9 53.3457 23.4167 53.3457 23.15C53.3457 23.0167 53.329 22.7333 53.2957 22.3C53.2957 21.8667 53.2624 21.4 53.1957 20.9C53.1624 20.4 53.0957 19.9667 52.9957 19.6C52.929 19.2333 52.8124 19.05 52.6457 19.05C52.3124 19.05 52.0457 19.1833 51.8457 19.45C51.679 19.7167 51.5124 19.9833 51.3457 20.25C50.379 21.8833 49.5957 23.5667 48.9957 25.3C48.4624 26.9 48.079 28.55 47.8457 30.25C47.6124 31.9167 47.2124 33.5333 46.6457 35.1C46.5457 35.5 46.2957 35.7 45.8957 35.7ZM73.8027 15.35C73.5694 15.35 73.3527 15.3 73.1527 15.2C72.9527 15.0667 72.8527 14.8833 72.8527 14.65C72.8527 14.3833 72.9694 13.9833 73.2027 13.45C73.4361 12.8833 73.7361 12.3167 74.1027 11.75C74.4694 11.1833 74.8527 10.7 75.2527 10.3C75.6861 9.9 76.0694 9.7 76.4027 9.7C76.6694 9.7 76.8027 9.86666 76.8027 10.2C76.8027 10.6 76.5861 10.9167 76.1527 11.15C75.8861 11.3167 75.6527 11.6333 75.4527 12.1C75.2861 12.5667 75.1361 13.05 75.0027 13.55C74.9027 14.05 74.8027 14.45 74.7027 14.75C74.6027 15.15 74.3027 15.35 73.8027 15.35ZM72.8027 34.5C72.0361 34.5 71.4694 34.1833 71.1027 33.55C70.7361 32.8833 70.5027 32.1333 70.4027 31.3C70.3027 30.4333 70.2527 29.7333 70.2527 29.2C70.2527 28.8667 70.2861 28.25 70.3527 27.35C70.4527 26.45 70.5694 25.45 70.7027 24.35C70.8694 23.2167 71.0527 22.1167 71.2527 21.05C71.4861 19.9833 71.7527 19.1 72.0527 18.4C72.3527 17.7 72.6694 17.35 73.0027 17.35C73.2694 17.35 73.5027 17.4333 73.7027 17.6C73.9027 17.7667 74.0027 17.9833 74.0027 18.25C74.0027 18.65 73.8861 19.2833 73.6527 20.15C73.4194 21.0167 73.1361 22 72.8027 23.1C72.5027 24.2 72.2194 25.3167 71.9527 26.45C71.7194 27.55 71.6027 28.55 71.6027 29.45C71.6027 29.6833 71.6194 30.0833 71.6527 30.65C71.7194 31.2167 71.8361 31.75 72.0027 32.25C72.1694 32.7167 72.4361 32.95 72.8027 32.95C73.3027 32.95 73.8527 32.5833 74.4527 31.85C75.0527 31.1167 75.6527 30.2167 76.2527 29.15C76.8861 28.05 77.4694 26.9667 78.0027 25.9C78.5361 24.8 78.9861 23.8833 79.3527 23.15C79.7194 22.4167 79.9694 22.05 80.1027 22.05C80.2694 22.05 80.3694 22.1167 80.4027 22.25C80.4694 22.35 80.5027 22.4667 80.5027 22.6C80.5027 23.0333 80.3194 23.7333 79.9527 24.7C79.5861 25.6333 79.1027 26.6667 78.5027 27.8C77.9027 28.9 77.2527 29.9667 76.5527 31C75.8527 32 75.1694 32.8333 74.5027 33.5C73.8361 34.1667 73.2694 34.5 72.8027 34.5ZM83.1289 15.35C82.8956 15.35 82.6789 15.3 82.4789 15.2C82.2789 15.0667 82.1789 14.8833 82.1789 14.65C82.1789 14.3833 82.2956 13.9833 82.5289 13.45C82.7622 12.8833 83.0622 12.3167 83.4289 11.75C83.7956 11.1833 84.1789 10.7 84.5789 10.3C85.0122 9.9 85.3956 9.7 85.7289 9.7C85.9956 9.7 86.1289 9.86666 86.1289 10.2C86.1289 10.6 85.9122 10.9167 85.4789 11.15C85.2122 11.3167 84.9789 11.6333 84.7789 12.1C84.6122 12.5667 84.4622 13.05 84.3289 13.55C84.2289 14.05 84.1289 14.45 84.0289 14.75C83.9289 15.15 83.6289 15.35 83.1289 15.35ZM82.1289 34.5C81.3622 34.5 80.7956 34.1833 80.4289 33.55C80.0622 32.8833 79.8289 32.1333 79.7289 31.3C79.6289 30.4333 79.5789 29.7333 79.5789 29.2C79.5789 28.8667 79.6122 28.25 79.6789 27.35C79.7789 26.45 79.8956 25.45 80.0289 24.35C80.1956 23.2167 80.3789 22.1167 80.5789 21.05C80.8122 19.9833 81.0789 19.1 81.3789 18.4C81.6789 17.7 81.9956 17.35 82.3289 17.35C82.5956 17.35 82.8289 17.4333 83.0289 17.6C83.2289 17.7667 83.3289 17.9833 83.3289 18.25C83.3289 18.65 83.2122 19.2833 82.9789 20.15C82.7456 21.0167 82.4622 22 82.1289 23.1C81.8289 24.2 81.5456 25.3167 81.2789 26.45C81.0456 27.55 80.9289 28.55 80.9289 29.45C80.9289 29.6833 80.9456 30.0833 80.9789 30.65C81.0456 31.2167 81.1622 31.75 81.3289 32.25C81.4956 32.7167 81.7622 32.95 82.1289 32.95C82.6289 32.95 83.1789 32.5833 83.7789 31.85C84.3789 31.1167 84.9789 30.2167 85.5789 29.15C86.2122 28.05 86.7956 26.9667 87.3289 25.9C87.8622 24.8 88.3122 23.8833 88.6789 23.15C89.0456 22.4167 89.2956 22.05 89.4289 22.05C89.5956 22.05 89.6956 22.1167 89.7289 22.25C89.7956 22.35 89.8289 22.4667 89.8289 22.6C89.8289 23.0333 89.6456 23.7333 89.2789 24.7C88.9122 25.6333 88.4289 26.6667 87.8289 27.8C87.2289 28.9 86.5789 29.9667 85.8789 31C85.1789 32 84.4956 32.8333 83.8289 33.5C83.1622 34.1667 82.5956 34.5 82.1289 34.5ZM89.7051 36.4C89.1384 36.4 88.7217 36.1167 88.4551 35.55C88.1884 35.0167 88.0217 34.4 87.9551 33.7C87.8884 33 87.8551 32.4667 87.8551 32.1C87.8551 30.8333 87.9717 29.5 88.2051 28.1C88.4384 26.6667 88.7384 25.3333 89.1051 24.1C89.2717 23.5333 89.5717 22.7167 90.0051 21.65C90.4384 20.55 90.9551 19.4333 91.5551 18.3C92.1884 17.1667 92.8551 16.2167 93.5551 15.45C94.2884 14.65 95.0217 14.25 95.7551 14.25C96.3217 14.25 96.9384 14.5 97.6051 15C98.2717 15.5 98.6051 16.05 98.6051 16.65C98.6051 16.8833 98.5217 17.0833 98.3551 17.25C98.3884 17.2167 98.4717 17.2 98.6051 17.2C99.2384 17.2 99.5551 17.5333 99.5551 18.2C99.5551 18.9667 99.4384 19.8833 99.2051 20.95C99.0051 22.0167 98.7884 23.15 98.5551 24.35C98.3217 25.5167 98.2051 26.65 98.2051 27.75C98.2051 28.15 98.2384 28.6333 98.3051 29.2C98.3717 29.7333 98.5217 30.2167 98.7551 30.65C99.0217 31.0833 99.4384 31.3 100.005 31.3C100.538 31.3 101.105 31.0167 101.705 30.45C102.305 29.8833 102.888 29.1833 103.455 28.35C104.022 27.5167 104.555 26.6833 105.055 25.85C105.555 25.0167 105.972 24.3167 106.305 23.75C106.672 23.1833 106.922 22.9 107.055 22.9C107.288 22.9 107.405 23.05 107.405 23.35C107.405 23.75 107.222 24.3333 106.855 25.1C106.522 25.8333 106.072 26.65 105.505 27.55C104.938 28.4167 104.305 29.2667 103.605 30.1C102.938 30.9 102.255 31.5667 101.555 32.1C100.888 32.6 100.288 32.85 99.7551 32.85C98.8884 32.85 98.2217 32.5 97.7551 31.8C97.3217 31.0667 97.0217 30.2 96.8551 29.2C96.7217 28.2 96.6551 27.2667 96.6551 26.4C96.6551 26.1 96.6551 25.8167 96.6551 25.55C96.6551 25.2833 96.6717 25.05 96.7051 24.85C96.5051 25.3167 96.2217 26.0167 95.8551 26.95C95.4884 27.85 95.0551 28.85 94.5551 29.95C94.0884 31.0167 93.5717 32.05 93.0051 33.05C92.4717 34.0167 91.9217 34.8167 91.3551 35.45C90.7884 36.0833 90.2384 36.4 89.7051 36.4ZM90.1051 34.3C90.5384 34.3 91.0217 33.9 91.5551 33.1C92.0884 32.3 92.6384 31.2833 93.2051 30.05C93.8051 28.7833 94.3717 27.4333 94.9051 26C95.4384 24.5667 95.9217 23.2167 96.3551 21.95C96.8217 20.65 97.2051 19.5833 97.5051 18.75C97.8051 17.8833 98.0051 17.4167 98.1051 17.35L97.8051 17.4C97.5717 17.4 97.3884 17.2833 97.2551 17.05C97.1217 16.7833 96.9551 16.5333 96.7551 16.3C96.5551 16.0667 96.2217 15.95 95.7551 15.95C95.1551 15.95 94.5717 16.3 94.0051 17C93.4384 17.7 92.8884 18.55 92.3551 19.55C91.8551 20.5167 91.4217 21.4667 91.0551 22.4C90.7217 23.3333 90.4884 24.0333 90.3551 24.5C89.6884 26.8 89.3551 29.1667 89.3551 31.6C89.3551 31.7333 89.3551 32.0333 89.3551 32.5C89.3884 32.9333 89.4551 33.35 89.5551 33.75C89.6884 34.1167 89.8717 34.3 90.1051 34.3ZM107.101 36.8C106.901 36.8 106.667 36.7167 106.401 36.55C106.134 36.3833 106.001 36.1833 106.001 35.95C106.001 35.6833 106.101 35.3167 106.301 34.85C106.534 34.35 106.817 33.8333 107.151 33.3C107.517 32.7333 107.867 32.2667 108.201 31.9C108.567 31.5333 108.901 31.35 109.201 31.35C109.367 31.35 109.467 31.4167 109.501 31.55C109.567 31.65 109.601 31.7667 109.601 31.9C109.601 32.0667 109.534 32.2833 109.401 32.55C109.067 33.15 108.784 33.7333 108.551 34.3C108.317 34.8667 108.101 35.4833 107.901 36.15C107.801 36.5833 107.534 36.8 107.101 36.8ZM116.252 36.75C116.085 36.75 115.752 36.7333 115.252 36.7C114.752 36.6667 114.218 36.6 113.652 36.5C113.118 36.4333 112.652 36.3333 112.252 36.2C111.852 36.0667 111.652 35.8833 111.652 35.65C111.652 35.4833 111.735 35.35 111.902 35.25C112.102 35.1833 112.268 35.15 112.402 35.15C113.068 35.15 113.735 35.25 114.402 35.45C115.068 35.65 115.768 35.75 116.502 35.75C118.802 35.75 121.118 35.3167 123.452 34.45C125.785 33.55 127.985 32.3167 130.052 30.75C132.152 29.1833 134.002 27.4 135.602 25.4C137.235 23.3667 138.518 21.2167 139.452 18.95C140.385 16.65 140.852 14.3333 140.852 12C140.852 9.43333 140.285 7.41667 139.152 5.95C138.018 4.48333 136.502 3.43333 134.602 2.8C132.735 2.16666 130.652 1.85 128.352 1.85C127.352 1.85 126.135 1.95 124.702 2.15C123.302 2.35 121.835 2.66667 120.302 3.1C118.802 3.53333 117.385 4.1 116.052 4.8C114.718 5.5 113.635 6.35 112.802 7.35C112.002 8.31666 111.602 9.46666 111.602 10.8C111.602 11.5667 111.802 12.1333 112.202 12.5C112.635 12.8667 113.185 13.1333 113.852 13.3C113.918 13.3333 114.035 13.3667 114.202 13.4C114.368 13.4 114.452 13.4667 114.452 13.6C114.252 13.8667 113.918 14 113.452 14C112.418 14 111.652 13.7 111.152 13.1C110.618 12.4667 110.352 11.65 110.352 10.65C110.352 9.11666 110.785 7.76666 111.652 6.6C112.552 5.43333 113.702 4.46666 115.102 3.7C116.535 2.9 118.068 2.25 119.702 1.75C121.368 1.25 123.002 0.899999 124.602 0.699998C126.202 0.466665 127.585 0.349999 128.752 0.349999C131.452 0.349999 133.852 0.683332 135.952 1.35C138.085 1.98333 139.768 3.11666 141.002 4.75C142.235 6.38333 142.852 8.71666 142.852 11.75C142.852 14.2833 142.335 16.7833 141.302 19.25C140.268 21.6833 138.852 23.95 137.052 26.05C135.252 28.15 133.202 30.0167 130.902 31.65C128.635 33.25 126.235 34.5 123.702 35.4C121.202 36.3 118.718 36.75 116.252 36.75ZM122.302 32C121.268 32 120.468 31.75 119.902 31.25C119.368 30.75 118.985 30.1 118.752 29.3C118.552 28.5 118.452 27.6833 118.452 26.85C118.452 25.2833 118.602 23.4667 118.902 21.4C119.202 19.3 119.652 17.1667 120.252 15C120.852 12.8 121.568 10.75 122.402 8.85C123.268 6.95 124.252 5.4 125.352 4.2C125.585 3.96666 125.868 3.85 126.202 3.85C126.435 3.85 126.668 3.9 126.902 4C127.168 4.1 127.318 4.28333 127.352 4.55L127.202 4.85C126.902 5.45 126.535 6.01667 126.102 6.55C125.668 7.05 125.285 7.6 124.952 8.2C123.385 10.8667 122.118 13.7833 121.152 16.95C120.185 20.0833 119.702 23.2 119.702 26.3C119.702 27.2333 119.785 28.1667 119.952 29.1C120.152 30.0333 120.768 30.6833 121.802 31.05C121.968 31.0833 122.135 31.15 122.302 31.25C122.502 31.35 122.602 31.5 122.602 31.7C122.602 31.9 122.502 32 122.302 32ZM147.767 35C146.867 35 146.167 34.6 145.667 33.8C145.2 33 144.883 32.0333 144.717 30.9C144.55 29.7333 144.467 28.65 144.467 27.65C144.467 27.1833 144.467 26.7667 144.467 26.4C144.5 26 144.533 25.6667 144.567 25.4H144.417C144.017 25.4 143.817 25.25 143.817 24.95C143.883 24.7833 144 24.65 144.167 24.55C144.367 24.4167 144.55 24.3333 144.717 24.3C144.883 22.8333 145.2 21.3333 145.667 19.8C146.133 18.2667 146.767 16.8833 147.567 15.65V15.35C147.567 15.0167 147.767 14.8167 148.167 14.75C148.333 14.5833 148.5 14.4 148.667 14.2C148.867 13.9667 149.083 13.85 149.317 13.85C149.583 13.85 149.783 13.9667 149.917 14.2C150.083 14.4 150.1 14.6167 149.967 14.85C150.6 14.9833 151.167 15.25 151.667 15.65C152.2 16.0167 152.467 16.5667 152.467 17.3C152.467 18.2667 152.1 19.2667 151.367 20.3C150.667 21.3 149.817 22.2167 148.817 23.05C147.85 23.85 146.967 24.45 146.167 24.85C146.067 25.65 146 26.4667 145.967 27.3C145.967 28.1 145.967 28.9 145.967 29.7C145.967 30.1 145.983 30.6 146.017 31.2C146.083 31.8 146.233 32.3333 146.467 32.8C146.733 33.2667 147.167 33.5 147.767 33.5C148.4 33.5 149.017 33.2167 149.617 32.65C150.25 32.0833 150.85 31.3667 151.417 30.5C152.017 29.6 152.567 28.6667 153.067 27.7C153.567 26.7333 154 25.8167 154.367 24.95C154.733 24.0833 155 23.4167 155.167 22.95C155.233 22.7833 155.317 22.6333 155.417 22.5C155.517 22.3333 155.667 22.25 155.867 22.25C156.133 22.25 156.267 22.4167 156.267 22.75C156.267 23.2833 156.083 24.05 155.717 25.05C155.35 26.0167 154.85 27.0667 154.217 28.2C153.617 29.3333 152.933 30.4167 152.167 31.45C151.433 32.4833 150.683 33.3333 149.917 34C149.15 34.6667 148.433 35 147.767 35ZM146.417 23.3C147.05 22.9 147.683 22.4 148.317 21.8C148.95 21.2 149.483 20.5167 149.917 19.75C150.35 18.9833 150.567 18.2167 150.567 17.45C150.567 17.05 150.367 16.7667 149.967 16.6C149.567 16.4 149.217 16.2833 148.917 16.25C148.283 17.2833 147.75 18.4167 147.317 19.65C146.917 20.8833 146.617 22.1 146.417 23.3ZM157.397 35.15C156.797 35.15 156.497 34.85 156.497 34.25C156.497 33.6833 156.697 33.05 157.097 32.35C157.531 31.6167 158.047 30.8833 158.647 30.15C159.247 29.3833 159.847 28.6833 160.447 28.05C161.081 27.4167 161.597 26.9 161.997 26.5C161.531 26.2667 160.947 26.0667 160.247 25.9C159.581 25.7 158.897 25.4833 158.197 25.25C157.531 24.9833 156.964 24.65 156.497 24.25C156.064 23.8167 155.847 23.25 155.847 22.55C155.847 21.8167 156.114 20.9833 156.647 20.05C157.214 19.1167 157.931 18.2167 158.797 17.35C159.664 16.45 160.547 15.7167 161.447 15.15C162.347 14.55 163.147 14.25 163.847 14.25C164.281 14.25 164.697 14.3667 165.097 14.6C165.531 14.8 165.747 15.15 165.747 15.65C165.747 15.7833 165.714 15.9667 165.647 16.2C165.581 16.4333 165.464 16.55 165.297 16.55C165.064 16.55 164.864 16.4333 164.697 16.2C164.564 15.9333 164.397 15.8 164.197 15.8C163.631 15.8 162.947 16.0333 162.147 16.5C161.381 16.9667 160.631 17.5667 159.897 18.3C159.164 19 158.547 19.7333 158.047 20.5C157.581 21.2667 157.347 21.95 157.347 22.55C157.347 22.95 157.581 23.3 158.047 23.6C158.514 23.9 159.064 24.15 159.697 24.35C160.364 24.55 161.014 24.75 161.647 24.95C162.281 25.1167 162.747 25.3 163.047 25.5C163.214 25.3333 163.497 25.0667 163.897 24.7C164.297 24.3333 164.747 23.9333 165.247 23.5C165.747 23.0667 166.197 22.7 166.597 22.4C167.031 22.1 167.331 21.95 167.497 21.95C167.631 21.95 167.697 22.0167 167.697 22.15C167.697 22.3167 167.531 22.6 167.197 23C166.897 23.3667 166.514 23.7667 166.047 24.2C165.614 24.6333 165.197 25.05 164.797 25.45C164.397 25.8167 164.114 26.0833 163.947 26.25C164.247 26.75 164.397 27.2833 164.397 27.85C164.397 28.4167 164.147 29.1167 163.647 29.95C163.147 30.75 162.514 31.55 161.747 32.35C161.014 33.15 160.247 33.8167 159.447 34.35C158.647 34.8833 157.964 35.15 157.397 35.15ZM159.297 32.6C159.597 32.6 159.947 32.4333 160.347 32.1C160.781 31.7667 161.197 31.35 161.597 30.85C161.997 30.35 162.331 29.8667 162.597 29.4C162.897 28.9 163.047 28.5 163.047 28.2C163.047 27.8667 162.981 27.6167 162.847 27.45C162.647 27.65 162.331 27.9667 161.897 28.4C161.497 28.8333 161.064 29.3167 160.597 29.85C160.164 30.35 159.781 30.8333 159.447 31.3C159.147 31.7333 158.997 32.0667 158.997 32.3C158.997 32.5 159.097 32.6 159.297 32.6ZM171.752 15.35C171.519 15.35 171.302 15.3 171.102 15.2C170.902 15.0667 170.802 14.8833 170.802 14.65C170.802 14.3833 170.919 13.9833 171.152 13.45C171.385 12.8833 171.685 12.3167 172.052 11.75C172.419 11.1833 172.802 10.7 173.202 10.3C173.635 9.9 174.019 9.7 174.352 9.7C174.619 9.7 174.752 9.86666 174.752 10.2C174.752 10.6 174.535 10.9167 174.102 11.15C173.835 11.3167 173.602 11.6333 173.402 12.1C173.235 12.5667 173.085 13.05 172.952 13.55C172.852 14.05 172.752 14.45 172.652 14.75C172.552 15.15 172.252 15.35 171.752 15.35ZM170.752 34.5C169.985 34.5 169.419 34.1833 169.052 33.55C168.685 32.8833 168.452 32.1333 168.352 31.3C168.252 30.4333 168.202 29.7333 168.202 29.2C168.202 28.8667 168.235 28.25 168.302 27.35C168.402 26.45 168.519 25.45 168.652 24.35C168.819 23.2167 169.002 22.1167 169.202 21.05C169.435 19.9833 169.702 19.1 170.002 18.4C170.302 17.7 170.619 17.35 170.952 17.35C171.219 17.35 171.452 17.4333 171.652 17.6C171.852 17.7667 171.952 17.9833 171.952 18.25C171.952 18.65 171.835 19.2833 171.602 20.15C171.369 21.0167 171.085 22 170.752 23.1C170.452 24.2 170.169 25.3167 169.902 26.45C169.669 27.55 169.552 28.55 169.552 29.45C169.552 29.6833 169.569 30.0833 169.602 30.65C169.669 31.2167 169.785 31.75 169.952 32.25C170.119 32.7167 170.385 32.95 170.752 32.95C171.252 32.95 171.802 32.5833 172.402 31.85C173.002 31.1167 173.602 30.2167 174.202 29.15C174.835 28.05 175.419 26.9667 175.952 25.9C176.485 24.8 176.935 23.8833 177.302 23.15C177.669 22.4167 177.919 22.05 178.052 22.05C178.219 22.05 178.319 22.1167 178.352 22.25C178.419 22.35 178.452 22.4667 178.452 22.6C178.452 23.0333 178.269 23.7333 177.902 24.7C177.535 25.6333 177.052 26.6667 176.452 27.8C175.852 28.9 175.202 29.9667 174.502 31C173.802 32 173.119 32.8333 172.452 33.5C171.785 34.1667 171.219 34.5 170.752 34.5ZM178.139 53.85C177.405 53.85 176.855 53.6333 176.489 53.2C176.155 52.8 175.922 52.3 175.789 51.7C175.689 51.1 175.639 50.5167 175.639 49.95C175.639 48.6833 175.839 47.2667 176.239 45.7C176.639 44.1333 177.189 42.5333 177.889 40.9C178.622 39.2667 179.455 37.7167 180.389 36.25C181.355 34.7833 182.389 33.4833 183.489 32.35C184.589 31.2167 185.722 30.3833 186.889 29.85L186.939 27.9C186.939 27.5333 186.922 26.9167 186.889 26.05C186.889 25.15 186.855 24.1833 186.789 23.15C186.722 22.1167 186.639 21.2 186.539 20.4C186.439 19.6 186.339 19.1167 186.239 18.95C185.939 19.4167 185.572 20.2333 185.139 21.4C184.705 22.5667 184.222 23.8667 183.689 25.3C183.155 26.7 182.589 28.0667 181.989 29.4C181.422 30.7333 180.822 31.8333 180.189 32.7C179.589 33.5667 178.989 34 178.389 34C177.689 34 177.155 33.7833 176.789 33.35C176.455 32.9167 176.222 32.4 176.089 31.8C175.989 31.1667 175.939 30.5833 175.939 30.05C175.939 29.4167 176.089 28.4667 176.389 27.2C176.689 25.9333 177.089 24.5667 177.589 23.1C178.122 21.6 178.722 20.1833 179.389 18.85C180.089 17.4833 180.822 16.3667 181.589 15.5C182.355 14.6333 183.139 14.2 183.939 14.2C184.405 14.2 184.789 14.3667 185.089 14.7C185.422 15.0333 185.672 15.4 185.839 15.8C185.905 15.7 186.022 15.65 186.189 15.65C186.689 15.65 187.089 16.0833 187.389 16.95C187.689 17.8167 187.905 18.9 188.039 20.2C188.205 21.4667 188.322 22.7833 188.389 24.15C188.455 25.5167 188.489 26.7 188.489 27.7C188.489 28.1 188.472 28.4667 188.439 28.8C188.439 29.1 188.439 29.3333 188.439 29.5H188.589C188.822 29.5 189.039 29.5667 189.239 29.7C189.472 29.8333 189.589 30.0333 189.589 30.3C189.589 30.8 189.322 31.05 188.789 31.05C188.589 31.05 188.439 31.0333 188.339 31C188.039 33.8333 187.572 36.6667 186.939 39.5C186.339 42.3667 185.405 45.1 184.139 47.7C183.939 48.1333 183.605 48.6833 183.139 49.35C182.705 50.05 182.205 50.7333 181.639 51.4C181.072 52.1 180.472 52.6833 179.839 53.15C179.239 53.6167 178.672 53.85 178.139 53.85ZM178.389 32.35C178.822 32.35 179.289 31.95 179.789 31.15C180.322 30.3167 180.855 29.2833 181.389 28.05C181.922 26.8167 182.422 25.5333 182.889 24.2C183.355 22.8333 183.755 21.6167 184.089 20.55C184.455 19.45 184.705 18.6833 184.839 18.25C184.772 18.1167 184.722 18 184.689 17.9C184.689 17.8 184.689 17.7 184.689 17.6C184.689 17.4667 184.689 17.2667 184.689 17C184.689 16.7 184.639 16.4333 184.539 16.2C184.439 15.9333 184.239 15.8 183.939 15.8C183.339 15.8 182.722 16.2167 182.089 17.05C181.489 17.8833 180.905 18.9333 180.339 20.2C179.805 21.4667 179.322 22.8 178.889 24.2C178.489 25.5667 178.155 26.8167 177.889 27.95C177.655 29.0833 177.539 29.9 177.539 30.4C177.539 30.7 177.572 31.1 177.639 31.6C177.705 32.1 177.955 32.35 178.389 32.35ZM178.139 52.35C178.539 52.35 178.972 52.1333 179.439 51.7C179.939 51.3 180.405 50.7833 180.839 50.15C181.305 49.55 181.705 48.95 182.039 48.35C182.405 47.7833 182.672 47.3333 182.839 47C184.072 44.6 184.989 42.0667 185.589 39.4C186.189 36.7667 186.605 34.1167 186.839 31.45C185.905 31.95 184.972 32.75 184.039 33.85C183.139 34.9167 182.272 36.15 181.439 37.55C180.605 38.95 179.855 40.4 179.189 41.9C178.555 43.4333 178.055 44.8833 177.689 46.25C177.322 47.65 177.139 48.8667 177.139 49.9C177.139 50.1 177.155 50.3833 177.189 50.75C177.222 51.15 177.305 51.5167 177.439 51.85C177.605 52.1833 177.839 52.35 178.139 52.35ZM193.267 35.2C193.034 35.2 192.851 35.1167 192.717 34.95C192.617 34.75 192.567 34.5333 192.567 34.3C192.567 32.4333 192.667 30.5667 192.867 28.7C193.101 26.8 193.217 24.9167 193.217 23.05C193.217 22.85 193.201 22.4667 193.167 21.9C193.167 21.3 193.134 20.6667 193.067 20C193.034 19.3 192.967 18.6833 192.867 18.15C192.801 17.5833 192.701 17.2333 192.567 17.1C192.434 17 192.301 16.8833 192.167 16.75C192.067 16.6167 192.017 16.45 192.017 16.25C192.017 16.05 192.101 15.9 192.267 15.8C192.467 15.6667 192.667 15.6 192.867 15.6C193.434 15.6 193.834 15.8667 194.067 16.4C194.334 16.9 194.501 17.5167 194.567 18.25C194.667 18.9833 194.717 19.6833 194.717 20.35C194.717 23.4833 194.617 26.6333 194.417 29.8C194.551 29.4333 194.817 28.7833 195.217 27.85C195.617 26.9167 196.101 25.8667 196.667 24.7C197.234 23.5333 197.817 22.4167 198.417 21.35C199.051 20.25 199.634 19.35 200.167 18.65C200.701 17.9167 201.134 17.55 201.467 17.55C201.934 17.55 202.267 17.85 202.467 18.45C202.701 19.0167 202.817 19.4833 202.817 19.85C202.817 21.3833 202.734 22.9167 202.567 24.45C202.434 25.9833 202.367 27.5333 202.367 29.1C202.367 29.3 202.384 29.6833 202.417 30.25C202.484 30.7833 202.584 31.3 202.717 31.8C202.884 32.2667 203.134 32.5 203.467 32.5C203.734 32.5 204.084 32.2 204.517 31.6C204.951 31 205.401 30.3 205.867 29.5C206.334 28.6667 206.751 27.8833 207.117 27.15C207.484 26.4167 207.734 25.9 207.867 25.6C207.901 25.5333 207.934 25.4667 207.967 25.4C208.001 25.3 208.051 25.25 208.117 25.25C208.284 25.25 208.384 25.3833 208.417 25.65C208.451 25.8833 208.467 26.0333 208.467 26.1C208.467 26.4333 208.284 27.0167 207.917 27.85C207.551 28.6833 207.084 29.5667 206.517 30.5C205.984 31.4333 205.417 32.2333 204.817 32.9C204.251 33.5667 203.734 33.9 203.267 33.9C202.601 33.9 202.101 33.6333 201.767 33.1C201.467 32.5667 201.267 31.9667 201.167 31.3C201.067 30.6 201.017 30.0167 201.017 29.55C201.017 28.45 201.067 27.35 201.167 26.25C201.301 25.15 201.367 24.05 201.367 22.95C201.367 22.85 201.351 22.6 201.317 22.2C201.317 21.8 201.301 21.4167 201.267 21.05C201.234 20.6833 201.151 20.5 201.017 20.5C200.684 20.5 200.251 20.9167 199.717 21.75C199.217 22.5833 198.667 23.6333 198.067 24.9C197.501 26.1667 196.934 27.4833 196.367 28.85C195.801 30.1833 195.301 31.3833 194.867 32.45C194.467 33.5167 194.184 34.2333 194.017 34.6C193.951 34.7333 193.851 34.8667 193.717 35C193.617 35.1333 193.467 35.2 193.267 35.2Z" fill="white"/>
</svg>
